<svg xmlns="http://www.w3.org/2000/svg" width="57.413" height="59" viewBox="0 0 57.413 59">
  <g id="Group_9411" data-name="Group 9411" transform="translate(-29 -340)">
    <g id="_001-air_conditioner" data-name="001-air conditioner" transform="translate(29 340.486)">
      <g id="Group_3877" data-name="Group 3877" transform="translate(0 0)">
        <g id="Group_3876" data-name="Group 3876">
          <g id="Group_3875" data-name="Group 3875">
            <g id="Group_3874" data-name="Group 3874">
              <g id="Group_3873" data-name="Group 3873">
                <g id="Group_3872" data-name="Group 3872">
                  <g id="Group_3871" data-name="Group 3871">
                    <g id="Group_3870" data-name="Group 3870">
                      <g id="Group_3869" data-name="Group 3869">
                        <g id="Group_3868" data-name="Group 3868">
                          <g id="Group_3867" data-name="Group 3867">
                            <g id="Group_3866" data-name="Group 3866">
                              <g id="Group_3865" data-name="Group 3865">
                                <g id="Group_3864" data-name="Group 3864">
                                  <g id="Group_3863" data-name="Group 3863">
                                    <g id="Group_3862" data-name="Group 3862">
                                      <g id="Group_3861" data-name="Group 3861">
                                        <g id="Group_3860" data-name="Group 3860">
                                          <g id="Group_3859" data-name="Group 3859">
                                            <g id="Group_3858" data-name="Group 3858">
                                              <ellipse id="Ellipse_774" data-name="Ellipse 774" cx="28.5" cy="29.5" rx="28.5" ry="29.5" transform="translate(0 -0.486)" fill="#1ea1f3"/>
                                            </g>
                                          </g>
                                        </g>
                                      </g>
                                    </g>
                                  </g>
                                </g>
                              </g>
                            </g>
                          </g>
                        </g>
                      </g>
                    </g>
                  </g>
                </g>
              </g>
            </g>
          </g>
        </g>
      </g>
      <path id="Path_3324" data-name="Path 3324" d="M117.005,116.248l-12.523-12.523-25.33,27.312,18.813,18.813c.417.017.836.027,1.258.025a28.937,28.937,0,0,0,28.856-29.018,29.277,29.277,0,0,0-.173-3.086l-6.212-6.212Z" transform="translate(-70.666 -91.971)" fill="#0170b5"/>
      <g id="Group_3899" data-name="Group 3899" transform="translate(5.923 19.588)">
        <g id="Group_3884" data-name="Group 3884" transform="translate(0 9.186)">
          <g id="Group_3881" data-name="Group 3881" transform="translate(0 0)">
            <g id="Group_3880" data-name="Group 3880">
              <g id="Group_3879" data-name="Group 3879">
                <g id="Group_3878" data-name="Group 3878">
                  <path id="Path_3325" data-name="Path 3325" d="M79.037,264.578l11.276-3.919-11.276-6.368-22.552,1.13v6.6l2.562,2.562Z" transform="translate(-56.485 -254.292)" fill="#dbe1e8"/>
                </g>
              </g>
            </g>
          </g>
          <g id="Group_3883" data-name="Group 3883" transform="translate(22.552)">
            <g id="Group_3882" data-name="Group 3882">
              <path id="Path_3326" data-name="Path 3326" d="M256,264.578V254.292l22.552,1.13v6.6l-2.55,2.55Z" transform="translate(-256 -254.292)" fill="#b8c2cc"/>
            </g>
          </g>
        </g>
        <g id="Group_3891" data-name="Group 3891" transform="translate(2.429 14.199)">
          <g id="Group_3888" data-name="Group 3888">
            <g id="Group_3887" data-name="Group 3887">
              <g id="Group_3886" data-name="Group 3886">
                <g id="Group_3885" data-name="Group 3885">
                  <path id="Path_3327" data-name="Path 3327" d="M98.1,301.7H77.972V298.64H98.1l10.062,1.748Z" transform="translate(-77.972 -298.64)" fill="#0051be"/>
                </g>
              </g>
            </g>
          </g>
          <g id="Group_3890" data-name="Group 3890" transform="translate(20.124 0)">
            <g id="Group_3889" data-name="Group 3889">
              <path id="Path_3328" data-name="Path 3328" d="M256,298.64h20.124V301.7H256Z" transform="translate(-256 -298.64)" fill="#00429c"/>
            </g>
          </g>
        </g>
        <g id="Group_3898" data-name="Group 3898">
          <g id="Group_3895" data-name="Group 3895" transform="translate(0 0)">
            <g id="Group_3894" data-name="Group 3894">
              <g id="Group_3893" data-name="Group 3893">
                <g id="Group_3892" data-name="Group 3892">
                  <path id="Path_3329" data-name="Path 3329" d="M79.037,184.021H56.485V173.027H79.037l11.276,6.289Z" transform="translate(-56.485 -173.027)" fill="#f7f9fa"/>
                </g>
              </g>
            </g>
          </g>
          <g id="Group_3897" data-name="Group 3897" transform="translate(22.552)">
            <g id="Group_3896" data-name="Group 3896">
              <path id="Path_3330" data-name="Path 3330" d="M256,173.027h22.552v10.994H256Z" transform="translate(-256 -173.027)" fill="#dbe1e8"/>
            </g>
          </g>
        </g>
        <path id="Path_3331" data-name="Path 3331" d="M77.972,237.293h8.68v2.261h-8.68Z" transform="translate(-75.543 -230.029)" fill="#ff6379"/>
        <ellipse id="Ellipse_775" data-name="Ellipse 775" cx="1.13" cy="1.13" rx="1.13" ry="1.13" transform="translate(12.892 7.264)" fill="#00eecf"/>
      </g>
      <g id="Group_3902" data-name="Group 3902" transform="translate(20.776 9.604)">
        <g id="Group_3900" data-name="Group 3900">
          <path id="Path_3332" data-name="Path 3332" d="M203.281,92.4l-7.7,7.7a7.7,7.7,0,1,1,0-15.4Z" transform="translate(-187.881 -84.699)" fill="#00ddc1"/>
          <path id="Path_3333" data-name="Path 3333" d="M263.7,92.4a7.7,7.7,0,0,1-7.7,7.7V84.7A7.7,7.7,0,0,1,263.7,92.4Z" transform="translate(-248.3 -84.699)" fill="#00baa0"/>
        </g>
        <g id="Group_3901" data-name="Group 3901" transform="translate(1.381 3.044)">
          <path id="Path_3334" data-name="Path 3334" d="M206.416,111.628a8.138,8.138,0,0,0-6.319,3.009l.907.907a6.867,6.867,0,0,1,5.412-2.64l.632-.6Zm-4.567,4.761.9.9a4.784,4.784,0,0,1,3.663-1.707l.632-.582-.632-.693A6.055,6.055,0,0,0,201.849,116.389Zm3.3,4.59a1.266,1.266,0,0,0,1.266,1.266l.316-1.315-.316-1.218A1.266,1.266,0,0,0,205.15,120.979Zm-1.539-2.829.9.9a2.7,2.7,0,0,1,1.9-.783l.632-.6-.632-.677A3.973,3.973,0,0,0,203.611,118.15Z" transform="translate(-200.097 -111.628)" fill="#f7f9fa"/>
          <path id="Path_3335" data-name="Path 3335" d="M256,114.31v1.275a4.784,4.784,0,0,1,3.663,1.707l.9-.9A6.055,6.055,0,0,0,256,114.31Zm0,3.958a2.7,2.7,0,0,1,1.9.783l.9-.9A3.973,3.973,0,0,0,256,116.993Zm0-6.64V112.9a6.867,6.867,0,0,1,5.412,2.64l.907-.907A8.138,8.138,0,0,0,256,111.628Zm0,8.085v2.533a1.266,1.266,0,1,0,0-2.533Z" transform="translate(-249.681 -111.628)" fill="#dbe1e8"/>
        </g>
      </g>
      <g id="Group_3907" data-name="Group 3907" transform="translate(17.572 40.628)">
        <g id="Group_3903" data-name="Group 3903" transform="translate(6.69)">
          <path id="Path_3336" data-name="Path 3336" d="M220.416,366.258h-1.7a2.9,2.9,0,0,1,.451-1.6,1.39,1.39,0,0,0,0-1.522,3.076,3.076,0,0,1,0-3.209,1.252,1.252,0,0,0,.227-.761h1.7a2.9,2.9,0,0,1-.451,1.6,1.389,1.389,0,0,0,0,1.521,3.077,3.077,0,0,1,0,3.209A1.252,1.252,0,0,0,220.416,366.258Z" transform="translate(-218.721 -359.163)" fill="#9de1f7"/>
        </g>
        <g id="Group_3904" data-name="Group 3904">
          <path id="Path_3337" data-name="Path 3337" d="M161.234,366.258h-1.7a2.9,2.9,0,0,1,.451-1.6,1.39,1.39,0,0,0,0-1.522,3.076,3.076,0,0,1,0-3.209,1.252,1.252,0,0,0,.227-.761h1.7a2.9,2.9,0,0,1-.451,1.6,1.389,1.389,0,0,0,0,1.521,3.077,3.077,0,0,1,0,3.209A1.252,1.252,0,0,0,161.234,366.258Z" transform="translate(-159.538 -359.163)" fill="#9de1f7"/>
        </g>
        <g id="Group_3905" data-name="Group 3905" transform="translate(20.069)">
          <path id="Path_3338" data-name="Path 3338" d="M338.783,366.258h-1.7a2.9,2.9,0,0,1,.452-1.6,1.39,1.39,0,0,0,0-1.522,3.076,3.076,0,0,1,0-3.209,1.252,1.252,0,0,0,.227-.761h1.7a2.9,2.9,0,0,1-.451,1.6,1.39,1.39,0,0,0,0,1.521,3.077,3.077,0,0,1,0,3.209A1.252,1.252,0,0,0,338.783,366.258Z" transform="translate(-337.087 -359.163)" fill="#5ecdf3"/>
        </g>
        <g id="Group_3906" data-name="Group 3906" transform="translate(13.38)">
          <path id="Path_3339" data-name="Path 3339" d="M279.6,366.258h-1.7a2.9,2.9,0,0,1,.451-1.6,1.389,1.389,0,0,0,0-1.522,3.076,3.076,0,0,1,0-3.209,1.252,1.252,0,0,0,.227-.761h1.7a2.9,2.9,0,0,1-.451,1.6,1.389,1.389,0,0,0,0,1.521,3.076,3.076,0,0,1,0,3.209A1.252,1.252,0,0,0,279.6,366.258Z" transform="translate(-277.904 -359.163)" fill="#5ecdf3"/>
        </g>
      </g>
    </g>
  </g>
</svg>
