<svg xmlns="http://www.w3.org/2000/svg" width="32.121" height="29.328" viewBox="0 0 32.121 29.328"><g transform="translate(-62.113 -163.422)"><path d="M29.328,7.983H24.859L22.345,5.19H13.966V7.983h7.123l2.653,2.793h5.586V27.535H6.983V14.966H4.19V27.535a2.8,2.8,0,0,0,2.793,2.793H29.328a2.8,2.8,0,0,0,2.793-2.793V10.776a2.8,2.8,0,0,0-2.793-2.793M11.173,19.155a6.987,6.987,0,1,0,6.983-6.983,6.99,6.99,0,0,0-6.983,6.983m6.983-4.19a4.315,4.315,0,0,1,4.19,4.19,4.315,4.315,0,0,1-4.19,4.19,4.315,4.315,0,0,1-4.19-4.19,4.315,4.315,0,0,1,4.19-4.19M6.983,7.983h4.19V5.19H6.983V1H4.19V5.19H0V7.983H4.19v4.19H6.983" transform="translate(62.113 162.422)" fill="#1d9ff1"/></g></svg>