<svg xmlns="http://www.w3.org/2000/svg" width="19.955" height="22.172" viewBox="0 0 19.955 22.172">
  <path id="Path_clipboard-list-outline" data-name="Path / clipboard-list-outline" d="M20.737,3.217H16.1a3.313,3.313,0,0,0-6.252,0H5.217A2.224,2.224,0,0,0,3,5.434v15.52a2.224,2.224,0,0,0,2.217,2.217h15.52a2.224,2.224,0,0,0,2.217-2.217V5.434a2.224,2.224,0,0,0-2.217-2.217m-7.76,0a1.109,1.109,0,1,1-1.109,1.109,1.112,1.112,0,0,1,1.109-1.109M7.434,7.652H18.52V5.434h2.217v15.52H5.217V5.434H7.434V7.652m5.543,11.086V16.52H18.52v2.217H12.977m0-6.652V9.869H18.52v2.217H12.977M8.543,13.195V9.869H7.434V8.76H9.652v4.434H8.543m1.386,2.217a.837.837,0,0,1,.831.831.822.822,0,0,1-.233.576L8.676,18.737H10.76v1.109H7.434v-1.02L9.652,16.52H7.434V15.412H9.929" transform="translate(-3 -1)" fill="#a3a3a3"/>
</svg>
