<svg xmlns="http://www.w3.org/2000/svg" width="54.457" height="54.137" viewBox="0 0 54.457 54.137">
  <g id="Group_9495" data-name="Group 9495" transform="translate(-40.652 -975.845)">
    <g id="_004-cctv" data-name="004-cctv" transform="translate(40.726 975.845)">
      <g id="Group_4029" data-name="Group 4029" transform="translate(-0.074 0)">
        <g id="Group_4028" data-name="Group 4028" transform="translate(0)">
          <g id="Group_4027" data-name="Group 4027">
            <g id="Group_4026" data-name="Group 4026">
              <g id="Group_4025" data-name="Group 4025">
                <g id="Group_4024" data-name="Group 4024">
                  <g id="Group_4023" data-name="Group 4023">
                    <g id="Group_4022" data-name="Group 4022">
                      <g id="Group_4021" data-name="Group 4021">
                        <g id="Group_4020" data-name="Group 4020">
                          <g id="Group_4019" data-name="Group 4019">
                            <g id="Group_4018" data-name="Group 4018">
                              <g id="Group_4017" data-name="Group 4017">
                                <g id="Group_4016" data-name="Group 4016">
                                  <g id="Group_4015" data-name="Group 4015">
                                    <g id="Group_4014" data-name="Group 4014">
                                      <g id="Group_4013" data-name="Group 4013">
                                        <g id="Group_4012" data-name="Group 4012">
                                          <g id="Group_4011" data-name="Group 4011">
                                            <ellipse id="Ellipse_778" data-name="Ellipse 778" cx="27.229" cy="26.759" rx="27.229" ry="26.759" fill="#1ea1f3"/>
                                          </g>
                                        </g>
                                      </g>
                                    </g>
                                  </g>
                                </g>
                              </g>
                            </g>
                          </g>
                        </g>
                      </g>
                    </g>
                  </g>
                </g>
              </g>
            </g>
          </g>
        </g>
      </g>
      <path id="Path_3384" data-name="Path 3384" d="M119.9,137.6l-4.075-4.075L86.175,147.886l8.779,8.779-3.519.217-4.4-4.4-3.8,9.15L94.239,172.64a27.149,27.149,0,0,0,34.43-26.21,27.422,27.422,0,0,0-.18-3.049l-7.18-7.18Z" transform="translate(-74.363 -119.497)" fill="#0170b5"/>
      <g id="Group_4032" data-name="Group 4032" transform="translate(8.869 14.03)">
        <g id="Group_4030" data-name="Group 4030" transform="translate(2.943)">
          <path id="Path_3385" data-name="Path 3385" d="M125.827,147.742,111,147.723V133.345l14.827.019,5.292,6.834Z" transform="translate(-111 -133.345)" fill="#046eff"/>
          <path id="Path_3386" data-name="Path 3386" d="M287.248,169.278h15.09v6.8h-15.09Z" transform="translate(-268.571 -165.47)" fill="#046eff"/>
          <path id="Path_3387" data-name="Path 3387" d="M416.743,158.763h2.735v9.029h-2.735Z" transform="translate(-384.343 -156.069)" fill="#ff6379"/>
        </g>
        <g id="Group_4031" data-name="Group 4031" transform="translate(4.19 13.305)">
          <path id="Path_3388" data-name="Path 3388" d="M132.57,270.5h-9.8v-3.443h6.353V258.9h3.443Z" transform="translate(-122.774 -258.895)" fill="#dbe1e8"/>
        </g>
        <path id="Path_3389" data-name="Path 3389" d="M85.234,315.468h-2V305.6h2a2.613,2.613,0,0,1,2.613,2.613v4.646A2.613,2.613,0,0,1,85.234,315.468Z" transform="translate(-83.232 -287.343)" fill="#4e5a61"/>
        <ellipse id="Ellipse_779" data-name="Ellipse 779" cx="2.755" cy="2.755" rx="2.755" ry="2.755" transform="translate(9.496 11.667)" fill="#4e5a61"/>
        <ellipse id="Ellipse_780" data-name="Ellipse 780" cx="1.114" cy="1.114" rx="1.114" ry="1.114" transform="translate(5.007 1.685)" fill="#ff6379"/>
        <path id="Path_3390" data-name="Path 3390" d="M262.053,147.742l-11.133-.019V133.345l14.828.019Z" transform="translate(-233.15 -133.345)" fill="#0051be"/>
      </g>
    </g>
  </g>
</svg>
