<svg xmlns="http://www.w3.org/2000/svg" width="14.415" height="13.714" viewBox="0 0 14.415 13.714">
  <g id="Group_9425" data-name="Group 9425" transform="translate(-229.898 -752)">
    <path id="Path_check-decagram" data-name="Path / check-decagram" d="M15.415,8.394l-1.6-1.822.223-2.411-2.365-.537L10.435,1.54,8.207,2.5,5.98,1.54,4.741,3.624l-2.365.531L2.6,6.566,1,8.394l1.6,1.822-.223,2.418,2.365.537L5.98,15.254l2.228-.963,2.228.957,1.238-2.084,2.365-.537-.223-2.411,1.6-1.822M6.9,11.67,4.276,9.049,5.2,8.125l1.7,1.69L11.215,5.5l.924.93Z" transform="translate(228.898 750.46)" fill="#1d9ff1"/>
  </g>
</svg>
