<svg xmlns="http://www.w3.org/2000/svg" width="54.48" height="54.156" viewBox="0 0 54.48 54.156">
  <g id="Group_9418" data-name="Group 9418" transform="translate(-343.76 -457.79)">
    <g id="_004-book" data-name="004-book" transform="translate(343.76 457.79)">
      <ellipse id="Ellipse_885" data-name="Ellipse 885" cx="27.225" cy="26.95" rx="27.225" ry="26.95" fill="#1ea1f3"/>
      <path id="Path_4173" data-name="Path 4173" d="M139.7,129.945a27.411,27.411,0,0,0-.164-2.985l-9.964-9.964-1.029,1.029L125.523,115l-4.691,4.691-1.03-1.03-24.23,24.23,14.015,14.015a27.42,27.42,0,0,0,2.986.164A27.129,27.129,0,0,0,139.7,129.945Z" transform="translate(-85.222 -102.917)" fill="#0170b5"/>
      <g id="Group_5866" data-name="Group 5866" transform="translate(10.35 12.086)">
        <path id="Path_4174" data-name="Path 4174" d="M129.574,133.8v25.9H116.538a4.941,4.941,0,0,1-7.929,0H95.573V133.8Z" transform="translate(-95.573 -131.808)" fill="#f03800"/>
        <path id="Path_4175" data-name="Path 4175" d="M273,133.8v25.9H259.965A4.953,4.953,0,0,1,256,161.692V133.8Z" transform="translate(-238.999 -131.808)" fill="#cd0000"/>
        <path id="Path_4176" data-name="Path 4176" d="M150.734,115a4.942,4.942,0,0,0-3.985,2.032A4.942,4.942,0,0,0,142.765,115H133.8v23.907h9.961a2,2,0,0,1,1.992,1.992h1.992a2,2,0,0,1,1.992-1.992H159.7V115Z" transform="translate(-129.749 -115)" fill="#e0f4ff"/>
        <path id="Path_4177" data-name="Path 4177" d="M268.95,115v23.907h-9.961A2,2,0,0,0,257,140.9h-1V117.032A4.942,4.942,0,0,1,259.985,115Z" transform="translate(-238.999 -115)" fill="#bbdcff"/>
        <rect id="Rectangle_17309" data-name="Rectangle 17309" width="5.977" height="1.992" transform="translate(19.989 8.965)" fill="#9abadb"/>
        <rect id="Rectangle_17310" data-name="Rectangle 17310" width="5.977" height="1.992" transform="translate(8.036 8.965)" fill="#bbdcff"/>
        <rect id="Rectangle_17311" data-name="Rectangle 17311" width="5.977" height="1.992" transform="translate(19.989 4.981)" fill="#9abadb"/>
        <rect id="Rectangle_17312" data-name="Rectangle 17312" width="5.977" height="1.992" transform="translate(8.036 4.981)" fill="#bbdcff"/>
        <rect id="Rectangle_17313" data-name="Rectangle 17313" width="5.977" height="1.992" transform="translate(19.989 12.95)" fill="#9abadb"/>
        <rect id="Rectangle_17314" data-name="Rectangle 17314" width="5.977" height="1.992" transform="translate(8.036 12.95)" fill="#bbdcff"/>
        <rect id="Rectangle_17315" data-name="Rectangle 17315" width="5.977" height="1.992" transform="translate(19.989 16.934)" fill="#9abadb"/>
        <rect id="Rectangle_17316" data-name="Rectangle 17316" width="5.977" height="1.992" transform="translate(8.036 16.934)" fill="#bbdcff"/>
      </g>
    </g>
  </g>
</svg>
