<svg xmlns="http://www.w3.org/2000/svg" width="54.407" height="54.613" viewBox="0 0 54.407 54.613">
  <g id="Group_9486" data-name="Group 9486" transform="translate(-138 -419.057)">
    <g id="_045-smart_home" data-name="045-smart home" transform="translate(137.956 419.267)">
      <g id="Group_5642" data-name="Group 5642" transform="translate(0.044 -0.21)">
        <g id="Group_5641" data-name="Group 5641" transform="translate(0)">
          <g id="Group_5640" data-name="Group 5640">
            <g id="Group_5639" data-name="Group 5639">
              <g id="Group_5638" data-name="Group 5638">
                <g id="Group_5637" data-name="Group 5637">
                  <g id="Group_5636" data-name="Group 5636">
                    <g id="Group_5635" data-name="Group 5635">
                      <g id="Group_5634" data-name="Group 5634">
                        <g id="Group_5633" data-name="Group 5633">
                          <g id="Group_5632" data-name="Group 5632">
                            <g id="Group_5631" data-name="Group 5631">
                              <g id="Group_5630" data-name="Group 5630">
                                <g id="Group_5629" data-name="Group 5629">
                                  <g id="Group_5628" data-name="Group 5628">
                                    <g id="Group_5627" data-name="Group 5627">
                                      <g id="Group_5626" data-name="Group 5626">
                                        <g id="Group_5625" data-name="Group 5625">
                                          <circle id="Ellipse_874" data-name="Ellipse 874" cx="27.192" cy="27.192" r="27.192" fill="#1ea1f3"/>
                                        </g>
                                      </g>
                                    </g>
                                  </g>
                                </g>
                              </g>
                            </g>
                          </g>
                        </g>
                      </g>
                    </g>
                  </g>
                </g>
              </g>
            </g>
          </g>
        </g>
      </g>
      <path id="Path_4034" data-name="Path 4034" d="M85.449,114.14l9.634,9.634A27.263,27.263,0,0,0,130.16,91.81L117.411,79.061Z" transform="translate(-76.391 -70.73)" fill="#0170b5"/>
      <g id="Group_5649" data-name="Group 5649" transform="translate(7.443 6.433)">
        <g id="Group_5643" data-name="Group 5643" transform="translate(25.344 24.931)">
          <path id="Path_4035" data-name="Path 4035" d="M316.107,303.2h-7.68v-1.659h6.021V295.5h1.659Z" transform="translate(-308.427 -295.5)" fill="#00429c"/>
        </g>
        <path id="Path_4036" data-name="Path 4036" d="M313.779,340.788h2.731v4.032h-2.731Z" transform="translate(-287.866 -311.038)" fill="#00429c"/>
        <g id="Group_5644" data-name="Group 5644" transform="translate(0 6.798)">
          <path id="Path_4037" data-name="Path 4037" d="M84.311,125.11,70.275,137.281l.01,0,1.609,1.609H84.311l2.435-5.1Z" transform="translate(-70.275 -125.11)" fill="#ff6379"/>
          <path id="Path_4038" data-name="Path 4038" d="M202.168,125.11v13.776h12.417l1.611-1.611Z" transform="translate(-188.132 -125.11)" fill="#ff415b"/>
        </g>
        <g id="Group_5645" data-name="Group 5645" transform="translate(1.615 9.806)">
          <path id="Path_4039" data-name="Path 4039" d="M97.866,180.548H85.449v-16.4l12.417-10.768,4.975,14.984Z" transform="translate(-85.449 -153.378)" fill="#f7f9fa"/>
          <path id="Path_4040" data-name="Path 4040" d="M214.55,180.548v-16.4l-12.417-10.768v27.17Z" transform="translate(-189.716 -153.378)" fill="#dbe1e8"/>
        </g>
        <path id="Path_4041" data-name="Path 4041" d="M177.554,340.424h-2.927v-8.13h2.927l1.222,4.065Z" transform="translate(-163.522 -303.448)" fill="#ffd944"/>
        <path id="Path_4042" data-name="Path 4042" d="M106.621,328.544h4.367V331.9h-4.367Z" transform="translate(-102.753 -300.097)" fill="#00eecf"/>
        <path id="Path_4043" data-name="Path 4043" d="M257.545,328.544h4.367V331.9h-4.367Z" transform="translate(-237.616 -300.097)" fill="#00ddc1"/>
        <path id="Path_4044" data-name="Path 4044" d="M106.621,271.208h4.367v3.353h-4.367Z" transform="translate(-102.753 -248.862)" fill="#00eecf"/>
        <path id="Path_4045" data-name="Path 4045" d="M257.545,271.208h4.367v3.353h-4.367Z" transform="translate(-237.616 -248.862)" fill="#00ddc1"/>
        <path id="Path_4046" data-name="Path 4046" d="M202.133,332.294h2.927v8.13h-2.927Z" transform="translate(-188.101 -303.448)" fill="#fc0"/>
        <g id="Group_5646" data-name="Group 5646" transform="translate(23.176)">
          <path id="Path_4047" data-name="Path 4047" d="M298.829,67.24l-4.758,6.012a6.012,6.012,0,1,1,0-12.024Z" transform="translate(-288.059 -61.228)" fill="#ffd944"/>
          <path id="Path_4048" data-name="Path 4048" d="M350.566,67.24a6.012,6.012,0,0,0-6.012-6.012V73.252A6.012,6.012,0,0,0,350.566,67.24Z" transform="translate(-338.542 -61.228)" fill="#fc0"/>
        </g>
        <path id="Path_4049" data-name="Path 4049" d="M177.554,274.561h-2.927v-3.353h2.927l1.222,1.676Z" transform="translate(-163.522 -248.862)" fill="#00eecf"/>
        <path id="Path_4050" data-name="Path 4050" d="M202.133,271.208h2.927v3.353h-2.927Z" transform="translate(-188.101 -248.862)" fill="#00ddc1"/>
        <g id="Group_5648" data-name="Group 5648" transform="translate(19.341 8.16)">
          <path id="Path_4051" data-name="Path 4051" d="M261.865,155.783h-9.848V137.906h9.848l2.948,9.1Z" transform="translate(-252.017 -137.906)" fill="#0051be"/>
          <path id="Path_4052" data-name="Path 4052" d="M344.554,137.906H354.4v17.877h-9.848Z" transform="translate(-334.706 -137.906)" fill="#00429c"/>
          <path id="Path_4053" data-name="Path 4053" d="M267.6,153.492h4.353v6.45H267.6Z" transform="translate(-265.945 -151.833)" fill="#046eff"/>
          <path id="Path_4054" data-name="Path 4054" d="M326.276,159.942H324.1v-6.45h2.177l1.088,3.225Z" transform="translate(-316.428 -151.833)" fill="#046eff"/>
          <path id="Path_4055" data-name="Path 4055" d="M380.6,153.492h4.353v6.45H380.6Z" transform="translate(-366.912 -151.833)" fill="#0051be"/>
          <path id="Path_4056" data-name="Path 4056" d="M267.6,229.692h4.353v6.45H267.6Z" transform="translate(-265.945 -219.924)" fill="#046eff"/>
          <path id="Path_4057" data-name="Path 4057" d="M326.276,236.142H324.1v-6.45h2.177l1.088,3.372Z" transform="translate(-316.428 -219.924)" fill="#046eff"/>
          <g id="Group_5647" data-name="Group 5647" transform="translate(9.848 1.659)">
            <path id="Path_4058" data-name="Path 4058" d="M380.6,229.692h4.353v6.45H380.6Z" transform="translate(-376.76 -221.583)" fill="#0051be"/>
            <path id="Path_4059" data-name="Path 4059" d="M344.554,153.492h2.177v6.45h-2.177Z" transform="translate(-344.554 -153.492)" fill="#0051be"/>
            <path id="Path_4060" data-name="Path 4060" d="M344.554,229.692h2.177v6.45h-2.177Z" transform="translate(-344.554 -221.583)" fill="#0051be"/>
          </g>
        </g>
      </g>
    </g>
  </g>
</svg>
