<svg xmlns="http://www.w3.org/2000/svg" width="22.094" height="22.522" viewBox="0 0 22.094 22.522"><path d="M25.62,12.907l-.114-.482H15.028V16.86h6.26a6.266,6.266,0,0,1-6.13,4.711,7.331,7.331,0,0,1-4.933-1.966,7.043,7.043,0,0,1-2.1-4.971,7.264,7.264,0,0,1,2.063-4.966,7.018,7.018,0,0,1,4.9-1.917,6.392,6.392,0,0,1,4.17,1.625l3.152-3.135a11.151,11.151,0,0,0-7.424-2.859h0a11.477,11.477,0,0,0-8.123,3.3A11.431,11.431,0,0,0,3.656,14.64a11.316,11.316,0,0,0,3.081,7.825A11.755,11.755,0,0,0,15.212,25.9a10.454,10.454,0,0,0,7.614-3.2,11.242,11.242,0,0,0,2.924-7.787A12.966,12.966,0,0,0,25.62,12.907Z" transform="translate(-3.656 -3.382)" fill="#fff"/></svg>