<svg xmlns="http://www.w3.org/2000/svg" width="58" height="58" viewBox="0 0 58 58">
  <g id="Group_9482" data-name="Group 9482" transform="translate(-139.169 -132.767)">
    <g id="technician" transform="translate(139.169 132.767)">
      <g id="Group_9191" data-name="Group 9191">
        <g id="Group_9190" data-name="Group 9190">
          <g id="Group_9189" data-name="Group 9189">
            <g id="Group_9188" data-name="Group 9188">
              <g id="Group_9187" data-name="Group 9187">
                <g id="Group_9186" data-name="Group 9186">
                  <path id="Path_7333" data-name="Path 7333" d="M9.644,50.6a29,29,0,1,1,38.712,0Z" fill="#1ea1f3"/>
                </g>
              </g>
            </g>
          </g>
        </g>
      </g>
      <path id="Path_7334" data-name="Path 7334" d="M149.339,82.242l6,6-.915,1.17,20.115,20.115h6.236a28.927,28.927,0,0,0,9.644-21.6q0-.381-.01-.759L169.7,66.463Z" transform="translate(-132.422 -58.934)" fill="#0170b5"/>
      <g id="Group_9192" data-name="Group 9192" transform="translate(9.644 35.717)">
        <path id="Path_7335" data-name="Path 7335" d="M92.408,315.74a7.342,7.342,0,0,0-4.55,4.887l-2.723,9.549a29.04,29.04,0,0,0,7.273,4.775h24.165a29.035,29.035,0,0,0,7.273-4.775l-2.723-9.549a7.342,7.342,0,0,0-4.55-4.887l-4.8-.442H97.21Z" transform="translate(-85.135 -315.298)" fill="#fff"/>
      </g>
      <g id="Group_9193" data-name="Group 9193" transform="translate(28.96 35.717)">
        <path id="Path_7336" data-name="Path 7336" d="M275.039,330.176l-2.723-9.55a7.342,7.342,0,0,0-4.55-4.887l-4.8-.442h-7.321v19.653h12.123A29.04,29.04,0,0,0,275.039,330.176Z" transform="translate(-255.643 -315.298)" fill="#e9edf5"/>
      </g>
      <g id="Group_9194" data-name="Group 9194" transform="translate(25.28 31.034)">
        <path id="Path_7337" data-name="Path 7337" d="M226.878,283.323a3.72,3.72,0,0,1-3.72-3.72v-5.646H230.6V279.6A3.721,3.721,0,0,1,226.878,283.323Z" transform="translate(-223.158 -273.956)" fill="#ffcdbe"/>
      </g>
      <g id="Group_9195" data-name="Group 9195" transform="translate(28.96 31.034)">
        <path id="Path_7338" data-name="Path 7338" d="M255.644,273.955v9.366h.04a3.72,3.72,0,0,0,3.72-3.721v-5.646h-3.761Z" transform="translate(-255.644 -273.955)" fill="#ffbeaa"/>
      </g>
      <g id="Group_9198" data-name="Group 9198" transform="translate(14.189 15.792)">
        <g id="Group_9196" data-name="Group 9196" transform="translate(20.688 0.735)">
          <circle id="Ellipse_1261" data-name="Ellipse 1261" cx="3.414" cy="3.414" r="3.414" transform="translate(0 6.644) rotate(-76.7)" fill="#ffbeaa"/>
        </g>
        <g id="Group_9197" data-name="Group 9197" transform="translate(0 0)">
          <circle id="Ellipse_1262" data-name="Ellipse 1262" cx="3.414" cy="3.414" r="3.414" transform="translate(0 4.827) rotate(-45)" fill="#ffcdbe"/>
        </g>
      </g>
      <g id="Group_9199" data-name="Group 9199" transform="translate(19.02 7.896)">
        <path id="Path_7339" data-name="Path 7339" d="M177.885,95.152a9.979,9.979,0,0,1-9.98-9.98V79.685a9.98,9.98,0,1,1,19.959,0v5.488A9.98,9.98,0,0,1,177.885,95.152Z" transform="translate(-167.905 -69.705)" fill="#ffdecf"/>
      </g>
      <g id="Group_9200" data-name="Group 9200" transform="translate(28.96 7.896)">
        <path id="Path_7340" data-name="Path 7340" d="M255.684,69.7h-.04V95.151h.04a9.979,9.979,0,0,0,9.98-9.98V79.685A9.979,9.979,0,0,0,255.684,69.7Z" transform="translate(-255.644 -69.705)" fill="#ffcdbe"/>
      </g>
      <g id="Group_9201" data-name="Group 9201" transform="translate(16.917 35.717)">
        <path id="Path_7341" data-name="Path 7341" d="M173.5,315.741a7.329,7.329,0,0,0-2.51-.442H168.7V326.44H154.14V315.3h-2.292a7.329,7.329,0,0,0-2.51.442v19.211a29.078,29.078,0,0,0,24.165,0Z" transform="translate(-149.338 -315.299)" fill="#00ddc1"/>
      </g>
      <g id="Group_9202" data-name="Group 9202" transform="translate(28.96 35.717)">
        <path id="Path_7342" data-name="Path 7342" d="M265.256,315.3h-2.292v11.141h-7.321V337.58h.04a28.894,28.894,0,0,0,12.083-2.629V315.74A7.329,7.329,0,0,0,265.256,315.3Z" transform="translate(-255.643 -315.298)" fill="#00baa0"/>
      </g>
      <g id="Group_9203" data-name="Group 9203" transform="translate(19.02 5.522)">
        <path id="Path_7343" data-name="Path 7343" d="M187.864,61.1H167.9V55.067a6.32,6.32,0,0,1,6.32-6.32h7.318a6.32,6.32,0,0,1,6.32,6.32Z" transform="translate(-167.905 -48.747)" fill="#00ddc1"/>
      </g>
      <g id="Group_9204" data-name="Group 9204" transform="translate(28.96 5.522)">
        <path id="Path_7344" data-name="Path 7344" d="M265.664,55.067a6.32,6.32,0,0,0-6.32-6.32h-3.7V61.1h10.02Z" transform="translate(-255.644 -48.747)" fill="#00baa0"/>
      </g>
      <g id="Group_9205" data-name="Group 9205" transform="translate(19.02 14.194)">
        <path id="Path_7345" data-name="Path 7345" d="M186.859,132.835a15.369,15.369,0,0,0-17.951,0q-.514-1.95-1-3.853a15.366,15.366,0,0,1,19.959,0Q187.374,130.885,186.859,132.835Z" transform="translate(-167.904 -125.3)" fill="#00baa0"/>
      </g>
      <g id="Group_9206" data-name="Group 9206" transform="translate(28.96 14.195)">
        <path id="Path_7346" data-name="Path 7346" d="M255.644,125.3v4.642a15.335,15.335,0,0,1,9.016,2.892q.514-1.95,1-3.853a15.334,15.334,0,0,0-10.02-3.681Z" transform="translate(-255.644 -125.304)" fill="#00baa0"/>
      </g>
    </g>
  </g>
</svg>
