<svg height="364.039" viewBox="0 0 395.98 364.039" width="395.98" xmlns="http://www.w3.org/2000/svg"><path d="m930.345 807.382h-345.114s-7-132.729 34.395-134.237 36.727 58.823 88.61-24.132 114.844-78.431 123.005-29.413-15.74 88.234 27.982 76.168 106.683 19.61 71.122 111.614z" fill="#1ea1f3" opacity=".15" transform="translate(-551.665 -531.17)"/><path d="m1482.882 910.042-20.158-2.358s-33.405 16.586-44.217 17.258-19.507-16.361-19.507-16.361 9.9-10.616 31.9-15.346c3.229-.694 6.437-1.448 9.654-1.842 44.046-5.384 42.328 18.649 42.328 18.649z" fill="#f6dc76" transform="translate(-1178.125 -798.369)"/><path d="m1485.582 899.457s-6.424-12.368-34.138-6.706c-8.328 1.7-12.038 6.385-16.174 9.338-6.407 4.573-6.854 8.236-4.3 15.211 5.757 15.784 13.131 38.85-3 62.706 0 0 67.119 18.562 68.619-5.436-.001 0 9.653-41.291-11.007-75.113z" fill="#f6dc76" transform="translate(-1194.743 -798.746)"/><path d="m1554.642 924.327c-.147.568-.867.967-1.959 1.192-2.683.559-7.8.143-13.438-1.236a44.582 44.582 0 0 1 -10.577-3.854c-2.063-1.158-3.195-2.293-2.965-3.173s1.921-1.4 4.482-1.431a45.031 45.031 0 0 1 10.9 1.474c5.779 1.409 10.547 3.446 12.571 5.2.769.666 1.129 1.295.986 1.828z" fill="#2f1a31" transform="translate(-1249.907 -812.644)"/><path d="m1475.639 859.773-3.468-6.407-1.014-1.864-5.957-10.972 1.9 11.757 1.14 7.053.36 2.237a6.338 6.338 0 0 1 -.8 4.335c-.334.624-1.734 4.084 1.79 4.855 4.4.962 10.257-3.984 12.389-8.167-.033.017-4.936.2-6.34-2.827z" fill="#f7b686" transform="translate(-1215.834 -770.003)"/><path d="m1466.818 848.685a.208.208 0 0 1 -.13-.139.217.217 0 0 1 .143-.269 2.284 2.284 0 0 1 2.679.867.221.221 0 0 1 -.034.3.23.23 0 0 1 -.3-.039 3.593 3.593 0 0 0 -2.224-.733.2.2 0 0 1 -.134.013z" fill="#060633" transform="translate(-1216.672 -774.314)"/><path d="m1468.6 853.947c-.035.511-.356.91-.724.867a.847.847 0 0 1 -.607-.971c.03-.512.355-.91.724-.867s.635.442.607.971z" fill="#060633" transform="translate(-1217.003 -777.052)"/><path d="m1489.984 837.293s-1.9 8.236-6.654 9.8c0 0 2.77-6.546-6.229-8.3-.001-.005 7.364-2.814 12.883-1.5z" transform="translate(-1222.576 -767.971)"/><path d="m1488.347 845.844a2.168 2.168 0 0 1 -3.035.126 2.224 2.224 0 0 1 .217-3.1 2.167 2.167 0 0 1 3.035-.126 2.224 2.224 0 0 1 -.217 3.1z" fill="#f7b686" transform="translate(-1226.93 -770.943)"/><path d="m1468.389 1151.926a.273.273 0 0 1 -.264-.277l.433-15.172c-.433-3.035-3.412-4.834-3.442-4.851a.269.269 0 0 1 .273-.464 8.013 8.013 0 0 1 3.706 5.263.152.152 0 0 1 0 .043l-.434 15.172a.273.273 0 0 1 -.273.286z" fill="#2f1a31" transform="translate(-1215.711 -934.626)"/><path d="m1496.819 1009.941h-.234a2.6 2.6 0 0 1 -1.869-.867c-1.2-1.431-.563-3.988 1.457-5.826a5.576 5.576 0 0 1 3.932-1.608 2.6 2.6 0 0 1 1.868.867c1.205 1.431.564 3.993-1.457 5.831a5.765 5.765 0 0 1 -3.697 1.603zm3.035-7.439a4.846 4.846 0 0 0 -3.082 1.383c-1.608 1.461-2.237 3.559-1.374 4.578a1.733 1.733 0 0 0 1.24.572 4.644 4.644 0 0 0 3.264-1.379c1.608-1.461 2.237-3.559 1.374-4.582a1.734 1.734 0 0 0 -1.24-.568z" fill="#e08b65" opacity=".5" transform="translate(-1232.211 -861.267)"/><path d="m1492 950.6a1.825 1.825 0 0 1 1.808-1.838c1 0 1.582.867 1.812 1.838.312 1.357-.811 1.838-1.812 1.838a1.825 1.825 0 0 1 -1.808-1.838z" fill="#2f1a31" transform="translate(-1231.016 -831.316)"/><ellipse cx="197.99" cy="282.574" fill="#b9e2fb" rx="197.99" ry="20.25"/><path d="m1115.575 875.686 2.718 23.968a4.7 4.7 0 0 0 4.643 4.2h73.487a4.7 4.7 0 0 0 4.669-4.461l1.461-24.9a4.717 4.717 0 0 0 -4.721-5.029l-77.666.928a4.721 4.721 0 0 0 -4.591 5.289z" fill="#f6dc76" transform="translate(-1017.752 -786.397)"/><path d="m1175.2 843.359-4-1.144 2.1-7.37a8.119 8.119 0 0 1 7.751-5.9h19.707a8.124 8.124 0 0 1 8 7.079l.867 6.5-4.127.546-.867-6.5a3.953 3.953 0 0 0 -3.871-3.468h-19.707a3.936 3.936 0 0 0 -3.746 2.874z" fill="#182f3e" transform="translate(-1049.282 -763.443)"/><path d="m1103.13 861.328v2.9a4.552 4.552 0 0 0 4.452 4.582l87.085 1.118a4.547 4.547 0 0 0 4.569-4.578v-3.074a4.552 4.552 0 0 0 -4.461-4.578l-87.086-.949a4.547 4.547 0 0 0 -4.56 4.578z" fill="#182f3e" transform="translate(-1010.72 -779.192)"/><path d="m1343.041 945.9c-26.331 15.675-57.759 13.985-79.491 9.806l3.355-16.785c26.079 5.011 44.429.113 61.193-9.42 6.329-3.59 25.815 9.936 14.943 16.399z" fill="#f7b686" transform="translate(-1101.599 -820.068)"/><path d="m1057.192 1098.06c12.2 6.472 91.26 2.428 120.513.685a11.7 11.7 0 0 0 10.924-11.7c.1-27.484.182-98.924.212-128.094a12.948 12.948 0 0 0 -12.537-13.053c-26.352-.65-86.739-1.946-107.7-2.293a7.5 7.5 0 0 0 -7.564 7.37c-.861 30.825-15.093 141.119-3.848 147.085z" fill="#1ea1f3" transform="translate(-982.257 -828.392)"/><path d="m1181.121 974.559a5.974 5.974 0 0 0 -5.419-4.569c-2.484 0-5.2.715-5.2 5.28 0 2.523 2.714 3.854 5.2 3.854s6.234-1.153 5.419-4.565z" fill="#81c6f2" transform="translate(-1048.886 -843.343)"/><path d="m1221.051 974.559a5.978 5.978 0 0 0 -5.419-4.569c-2.484 0-5.2.715-5.2 5.28 0 2.523 2.718 3.854 5.2 3.854s6.221-1.153 5.419-4.565z" fill="#81c6f2" transform="translate(-1071.507 -843.343)"/><path d="m1260.031 974.559a5.978 5.978 0 0 0 -5.419-4.569c-2.484 0-5.2.715-5.2 5.28 0 2.523 2.718 3.854 5.2 3.854s6.221-1.153 5.419-4.565z" fill="#81c6f2" transform="translate(-1093.589 -843.343)"/><path d="m1295.917 974.559a5.969 5.969 0 0 0 -5.414-4.569c-2.484 0-5.2.715-5.2 5.28 0 2.523 2.714 3.854 5.2 3.854s6.22-1.153 5.414-4.565z" fill="#81c6f2" transform="translate(-1113.92 -843.343)"/><path d="m1113.909 961.409-17.882.689a3.164 3.164 0 0 0 -3.034 2.991l-.572 9.5a3.169 3.169 0 0 0 3.373 3.377l18.445-1.409a3.169 3.169 0 0 0 2.9-3.182v-8.775a3.165 3.165 0 0 0 -3.234-3.186z" fill="#182f3e" transform="translate(-1004.65 -838.481)"/><path d="m1205.273 1076.6c0-27.245-21.9-52.185-48.6-49.328-33.1 3.537-48.6 22.082-48.6 49.328s21.762 49.328 48.6 49.328 48.6-22.087 48.6-49.328z" fill="#182f3e" transform="translate(-1013.519 -875.664)"/><path d="m1152.119 1124.879c-28.723 0-52.089-15.641-52.089-52.887 0-29.153 10.76-55.314 52.089-52.887 35.114 2.081 51.118 23.734 52.089 52.887 1.284 38.521-23.365 52.887-52.089 52.887zm0-98.66c-29.044-2.462-43.007 25.087-43.007 50.334s18.376 44.789 43.007 41.247c29.218-4.2 41.746-23.327 41.746-48.578s-16.872-43.003-41.746-43.003z" fill="#81c6f2" transform="translate(-1008.965 -871.077)"/><path d="m1294.205 1106h9.281v32.491h-7.122a8.774 8.774 0 0 1 -8.774-8.774v-17.1a6.616 6.616 0 0 1 6.615-6.617z" fill="#81c6f2" transform="translate(-1115.218 -920.391)"/><path d="m1360.153 1295.48s-.156 6.247-4.335 8.007-16.226 3.351-11.7 7.369c2.6 2.3 14.774.815 18.207.815s6.672 1.521 9.229-.815c2.813-2.571 0-15.372 0-15.372a13.6 13.6 0 0 1 -5.635 1.5 10.824 10.824 0 0 1 -5.766-1.504z" fill="#2f1a31" transform="translate(-1146.672 -1027.733)"/><path d="m1357.242 1172.43a14.267 14.267 0 0 1 -16.594-9.381c-1.578-4.578-3.468-10.1-5.44-15.961-9.221-27.375-4.222-41.768 3.628-49.978 11.839-12.376 71.094-28.55 71.722-28.65l5.635 36.028-2.831-18.021 2.813 18.016c0 8.67-53.468 11.669-50.125 27.9.72 3.494 1.426 7.738 2.6 12.762.8 3.468 1.63 6.771 2.419 9.762a13.5 13.5 0 0 1 -9.971 16.651z" fill="#182f3e" transform="translate(-1139.374 -899.126)"/><path d="m1441.87 834.83a15.932 15.932 0 0 0 1.3 6.39c1.452 3.4 3.239-6.069 3.239-6.069z" transform="translate(-1202.617 -766.774)"/><ellipse cx="10.478" cy="12.823" fill="#f7b686" rx="10.478" ry="12.823" transform="matrix(.998 -.067 .067 .998 239.479 62.681)"/><path d="m1455.56 821.017-5.072.52a3.659 3.659 0 0 1 -3.034-1.088c-1.348-1.4-2.74-1.977-7.339-.832-5.822 1.452-10.4-1.3-11.7-4.27s1.27-5.826 4.526-4.929 1.235-2.553 3.988-3.542c5.146-1.847 6.979 2.09 11.271 1.045 5.635-1.366 16.724.867 13.959 12.056z" transform="translate(-1194.797 -750.655)"/><path d="m1448.716 850.413a.168.168 0 0 1 -.134-.082.26.26 0 0 1 .026-.3 1.474 1.474 0 0 1 2.167-.2.26.26 0 0 1 .065.295.151.151 0 0 1 -.221.078 2.2 2.2 0 0 0 -1.8.165.165.165 0 0 1 -.103.044z" fill="#060633" transform="translate(-1206.398 -775.053)"/><path d="m1448.716 850.413a.168.168 0 0 1 -.134-.082.26.26 0 0 1 .026-.3 1.474 1.474 0 0 1 2.167-.2.26.26 0 0 1 .065.295.151.151 0 0 1 -.221.078 2.2 2.2 0 0 0 -1.8.165.165.165 0 0 1 -.103.044z" fill="#060633" transform="translate(-1200.063 -775.883)"/><path d="m1452.571 854.848a.867.867 0 0 1 -.334 1.1c-.347.117-.763-.178-.928-.668a.841.841 0 0 1 .338-1.1c.347-.117.781.182.924.668z" fill="#060633" transform="translate(-1207.917 -777.723)"/><path d="m1452.571 854.848a.867.867 0 0 1 -.334 1.1c-.347.117-.763-.178-.928-.668a.841.841 0 0 1 .338-1.1c.347-.117.781.182.924.668z" fill="#060633" transform="translate(-1202.12 -778.632)"/><path d="m1460.7 841.174s1.946 6.164.923 7.621-9.264 3.719-13.473 3a8.314 8.314 0 0 0 8.367 6.9 11.842 11.842 0 0 0 3.984-.867c2.631-1.053 5.05-2.753 5.635-5.557.187-.867-1.786-5.449-1.786-5.449s-.949-2.744.369-4.552a8.139 8.139 0 0 0 -4.019-1.096z" transform="translate(-1206.175 -770.357)"/><path d="m1454 868.867a21.2 21.2 0 0 0 6.8-.867 3.319 3.319 0 0 1 -3.511 3.468c-2.153.048-3.289-2.601-3.289-2.601z" fill="#fff" transform="translate(-1209.488 -785.565)"/><path d="m1440.932 825.16a18.943 18.943 0 0 1 -3.5-.685c-2.38-.724-3.845-1.829-4.24-3.2a2.333 2.333 0 0 1 .117-2.107c.555-.72 1.769-.685 2.839-.659h.464v.143h-.468c-1.036-.026-2.211-.056-2.722.607a2.208 2.208 0 0 0 -.091 1.977c.923 3.208 7.547 3.78 7.612 3.784z" fill="#fff" transform="translate(-1197.6 -757.521)"/><path d="m1425.586 950.8s21.6-7.66 27.536-2.115 12.2 22.871 23.955 24.961 16.139 4.123 16.139 4.123.087 46.913-7.37 71.575l-47.412-26.236-24.155-9.5s9.468-7.3 10.183-15.606-6.905-44.849 1.124-47.202z" fill="#182f3e" transform="translate(-1186.987 -830.134)"/><path d="m1355.84 1022.972s-6.6-5.328-11.462-4.474-10.439 5.674-7.313 5.8a31.432 31.432 0 0 0 7.157-.867s-8.527 2.475-7.092 4.248 8.831-.433 8.831-.433-9.918 3.763-8.029 4.994 9.4-1.682 9.4-1.682-9.1 3.871-6.862 5.25 7.491-3.251 8.921-1.478 7.721 8.327 13.062 4.885z" fill="#f7b686" transform="translate(-1142.732 -870.77)"/><path d="m1354.742 1029.229-.152-.329c.1-.048 2.423-1.105 3.811-.247l-.191.312c-1.223-.759-3.442.255-3.468.264z" fill="#dd8964" transform="translate(-1153.173 -876.386)"/><path d="m1358.79 1037.953-.161-.33a6.292 6.292 0 0 1 4.491-.312l-.126.342a6 6 0 0 0 -4.204.3z" fill="#dd8964" transform="translate(-1155.462 -881.31)"/><path d="m1361.912 1045.5-.152-.334c.117-.052 2.865-1.3 4.266-.269l-.217.295c-1.227-.914-3.867.296-3.897.308z" fill="#dd8964" transform="translate(-1157.235 -885.547)"/><path d="m1472.046 922.515c-.225.8-.542 1.816-.975 3.034a71.624 71.624 0 0 1 -14.618 23.63c-20.73 22.75-51.292 30.375-73.261 32.764l-1.582-17.05c26.391-2.874 42.552-12.957 55.878-27.016 5.029-5.31 8.076-12.749 9.606-17.418.867-2.6 1.253-4.335 1.257-4.361s.087-.091.26-.243a45.029 45.029 0 0 1 10.9 1.474c5.76 1.397 10.528 3.435 12.535 5.186z" fill="#f7b686" transform="translate(-1168.48 -812.674)"/><path d="m1448.986 898.642s-7.911 14.162-7.187 27.228l4.769-.247s1.4-19.6 6.55-28.078a4.335 4.335 0 0 0 -4.132 1.097z" fill="#182f3e" transform="translate(-1202.551 -802.222)"/><path d="m1444 956.218a1.821 1.821 0 0 1 1.808-1.838c1 0 1.582.867 1.812 1.838.317 1.357-.81 1.838-1.812 1.838a1.821 1.821 0 0 1 -1.808-1.838z" fill="#f6dc76" transform="translate(-1203.824 -834.5)"/><path d="m1444 956.218a1.821 1.821 0 0 1 1.808-1.838c1 0 1.582.867 1.812 1.838.317 1.357-.81 1.838-1.812 1.838a1.821 1.821 0 0 1 -1.808-1.838z" fill="#f6dc76" transform="translate(-1183.016 -835.129)"/><path d="m1099.439 1310.18s-10.66-10.868-6.992-17.058 9.862 13.3 9.862 13.3-3.212-23.045 3.438-23.444 0 23.444 0 23.444 2.467-5.557 4.873-5.9 1.734 4.716-2.579 9.667z" fill="#1ea1f3" transform="translate(-1004.234 -1020.644)"/><path d="m1099.685 1305.182a48.508 48.508 0 0 1 -5.579-7.105c-3.407-5.389-4.218-9.667-2.41-12.719.672-1.136 1.482-1.66 2.406-1.556 1.838.212 4 3.117 6.42 8.635.737 1.678 1.392 3.36 1.9 4.769-.589-6.03-1.27-18.051 2.051-22.109a3.581 3.581 0 0 1 2.6-1.422 2.74 2.74 0 0 1 2.415 1.053c2.983 3.7.286 16.759-1.2 22.867 1.105-1.791 2.675-3.789 4.279-4.019a1.568 1.568 0 0 1 1.7.8c.967 1.777-.368 6.3-4.278 10.807l-.59-.511c3.845-4.426 4.9-8.605 4.183-9.923a.789.789 0 0 0 -.91-.4c-2.063.295-4.469 4.769-5.2 6.468l-.732-.26c0-.052 1.474-5.306 2.449-11.059 1.3-7.521 1.179-12.459-.29-14.279a1.96 1.96 0 0 0 -1.76-.763 2.812 2.812 0 0 0 -2.059 1.136c-4.192 5.12-1.5 24.818-1.479 25.017l-.759.169c-1.392-4.378-5.687-15.823-8.831-16.182-.6-.069-1.135.317-1.647 1.179-3.962 6.689 7.76 18.757 7.877 18.879z" fill="#42428e" transform="translate(-1003.713 -1015.374)"/><path d="m1694.285 1266.112s6.151.139 7.9 4.361 3.346 16.473 7.291 11.869c2.263-2.631.759-14.995.75-18.489s1.483-6.776-.828-9.364c-2.54-2.848-15.147.044-15.147.044a14.1 14.1 0 0 1 1.5 5.718 11.271 11.271 0 0 1 -1.466 5.861z" fill="#2f1a31" transform="translate(-1345.591 -1003.801)"/><path d="m1480.508 1170.683c-11.271-14.041-9.793-64.838-4.292-96.341 3.59-20.557 47.615-21.242 47.091-5.05-.156 4.838-.724 10.213-1.044 16.2-1.522 28.277-11.154 50.4-8.5 53.459 3.793 4.37 36.453-.585 50.633 1.11a9.138 9.138 0 0 1 7.9 7.751l1.153 7.612c.672 4.435-2.835 7.166-6.966 8.774-23.426 9.086-74.414 20.886-85.975 6.485z" fill="#182f3e" transform="translate(-1219.702 -893.174)"/><path d="m1491.991 916.291c-.16-.715 2.657-20.613 8.67-26.318 0 0 2.818-1.1 4.157 0 0 0-7.855 17.7-7.682 27.64z" fill="#182f3e" transform="translate(-1231.007 -797.737)"/><g fill="none" stroke="#1ea1f3"><path d="m31.748 29.459-2.287 2.287a1.611 1.611 0 0 1 -2.271 0l-19.135-19.102a6.136 6.136 0 0 1 -1.611.242 6.443 6.443 0 0 1 -6.088-8.537l4.091 4.091.853-.854 2.288-2.286.854-.854-4.092-4.092a6.443 6.443 0 0 1 8.537 6.088 6.137 6.137 0 0 1 -.242 1.611l19.1 19.135a1.611 1.611 0 0 1 0 2.271m-31.277-2.271a1.611 1.611 0 0 0 0 2.271l2.287 2.287a1.611 1.611 0 0 0 2.271 0l8.81-8.794-4.557-4.558m19.715-18.394-6.443 3.221v3.222l-3.5 3.5 3.221 3.221 3.5-3.5h3.221l3.221-6.443z" stroke-width="1.5" transform="matrix(.93969262 -.34202014 .34202014 .93969262 45.981 43.576)"/><path d="m14.1 4.029v2.015h12.089v-2.015zm26.191 26.189a4.037 4.037 0 0 1 -1.209 2.841 3.792 3.792 0 0 1 -2.82 1.189h-32.233a3.792 3.792 0 0 1 -2.82-1.189 4.037 4.037 0 0 1 -1.209-2.841v-8.058h10.073v2.015h4.027v-2.015h12.089v2.015h4.029v-2.015h10.073zm-35.255-21.718a3.7 3.7 0 0 1 3.687-2.456h1.35v-2.015a3.99 3.99 0 0 1 4.027-4.029h12.089a3.99 3.99 0 0 1 4.029 4.029v2.015h1.35a3.7 3.7 0 0 1 3.687 2.456l4.19 9.63h-9.227v-2.013h-4.029v2.015h-12.089v-2.015h-4.027v2.015h-9.227z" stroke-width="1.5" transform="matrix(.891 .454 -.454 .891 341.074 85.205)"/><path d="m14.558 0a14.558 14.558 0 0 1 14.558 14.558h2.084v6.242h-2.08v8.319h-14.562a14.558 14.558 0 1 1 0-29.119m0 6.239a8.319 8.319 0 1 0 8.319 8.319 8.319 8.319 0 0 0 -8.319-8.319m16.642 18.717h10.4v8.319h-4.165v-4.159h-6.235z" stroke-width="1.5" transform="matrix(.7313537 -.68199836 .68199836 .7313537 176.728 331.193)"/><path d="m0 3.924c22.788-7.976 25.547-2.7 36.761 6.057s32.383-6.057 32.383-6.057" stroke-width="3" transform="matrix(.92718385 .37460659 -.37460659 .92718385 54.891 316.954)"/><path d="m0 1.693c9.833-3.441 11.024-1.164 15.863 2.614s13.973-2.614 13.973-2.614" stroke-width="3" transform="matrix(.93969262 -.34202014 .34202014 .93969262 284.474 11.891)"/><path d="m0 3.924c22.788-7.976 25.547-2.7 36.761 6.057s32.383-6.057 32.383-6.057" stroke-width="3" transform="matrix(.92718385 .37460659 -.37460659 .92718385 50.546 324.572)"/><path d="m0 1.693c9.833-3.441 11.024-1.164 15.863 2.614s13.973-2.614 13.973-2.614" stroke-width="3" transform="matrix(.93969262 -.34202014 .34202014 .93969262 284.474 19.578)"/></g></svg>