<svg xmlns="http://www.w3.org/2000/svg" width="299.712" height="499.005" xmlns:v="https://vecta.io/nano"><style><![CDATA[.B{fill:#f7b686}.C{fill:#2f1a31}.D{fill:#f6dc76}.E{fill:#1ea1f3}.F{fill:#182f3e}.G{fill:#56335b}]]></style><path d="M203.697 129.438c-15.032 18.329-37.981 43.478-62.183 59.192a79.3 79.3 0 0 1-11.359 6.589c-2.866 1.318-3.833 7.947-1.659 12.943 2.039 4.69 6.985 7.376 10.718 6.449 2.786-.692 1.253 3.006 7.566-.927 21.937-13.744 48.549-40.722 72.911-72.12z" class="B"/><path d="M91.513 208.241s9.465-18.214 33.3-13.82c11.259 2.079 17.948-2.971 20.679 18.074 2.455 18.9-2.571 43.593-5.371 80.172 0 0-17.347-39.845-66.207-26.231 0 0-2.074-18.229 6.689-48.764 2.471-8.614 7.723-3.618 10.91-9.431z" class="D"/><path d="M71.93 197.529c-1.919 1.874 0 7.2 6.469 13.6s9.48 8.724 12.271 5.587c1.849-2.074 1.638-10.633-5.011-16.034-5.201-4.18-12.361-4.491-13.729-3.153z" class="C"/><path d="M36.243 302.374c9.55-21.777 24.943-52.3 44.039-74.089 2.794-3.402 5.863-6.57 9.175-9.47 2.4-2.059 1.563-8.7-1.864-12.918-3.212-3.953-8.694-5.171-12.026-3.257-2.505 1.433-4.7 3.482-9.721 9.019-17.442 19.266-33.161 46.515-48.218 83.439z" class="B"/><path d="M70.613 198.051l18.2 20.74s42.09 19.928 55.739-.13c9.971-14.671-1.528-31.347-1.528-31.347a50.51 50.51 0 0 1-23.651 5.472c-3.6-.13-12.722.431-16.26.316-24.678-.818-32.5 4.949-32.5 4.949z" class="D"/><path d="M291.011 487.819H4.031s-5.817-110.371 28.6-111.625 30.54 48.914 73.684-20.067 95.5-65.219 102.285-24.457-13.088 73.371 23.27 63.332 88.711 16.31 59.141 92.817z" opacity=".15" class="E"/><ellipse cx="143.917" cy="487.552" rx="143.472" ry="11.453" fill="#b9e2fb"/><path d="M278.808 71.719c.125 2.1-10.6 4.64-26.427 6.594l-2.791.331c-6.113.7-12.9 1.308-20.043 1.774a417.99 417.99 0 0 1-17.262.787q-2.921.075-5.667.1c-15.919.13-26.868-1-27-3.087-.115-1.819 7.862-3.953 20.223-5.752l3.031-.426c5.226-.7 11.119-1.343 17.427-1.874q4.179-.351 8.568-.646l6.013-.351c8.353-.436 16.089-.606 22.654-.5h.471c12.505.139 20.683 1.242 20.803 3.05z" fill="#cfe2de"/><g class="C"><path d="M229.213 40.036h0c-1.179 0-2.135-.956-2.135-2.135V2.13A2.13 2.13 0 0 1 229.213 0h0a2.13 2.13 0 0 1 2.135 2.13v35.772c0 1.179-.956 2.135-2.135 2.135z"/><path d="M223.024 37.365a6.19 6.19 0 0 1 6.286-6.036 6.19 6.19 0 0 1 6.088 6.236 6.19 6.19 0 0 1-6.186 6.139c-1.661-.02-3.247-.699-4.407-1.888s-1.801-2.79-1.781-4.451z"/></g><g class="B"><path d="M219.206 131.622h0a2.1 2.1 0 0 0 2.781-1.077l7.341-16.641a2.16 2.16 0 0 0-1.062-2.826h0a2.11 2.11 0 0 0-2.786 1.082l-7.336 16.651c-.465 1.07.005 2.316 1.062 2.811zm-4.921-2.235h0a2.1 2.1 0 0 0 2.781-1.077l8.208-18.62c.475-1.074.003-2.331-1.062-2.826h0a2.1 2.1 0 0 0-2.781 1.077l-8.208 18.625c-.472 1.073 0 2.326 1.062 2.821zm-4.94-2.229h0a2.1 2.1 0 0 0 2.781-1.082l6.579-14.927a2.15 2.15 0 0 0-1.062-2.821h0a2.1 2.1 0 0 0-2.781 1.077l-6.577 14.927a2.16 2.16 0 0 0 1.062 2.826z"/><path d="M218.364 142.621s9.8-7.085 10.187-15.754c.135-3.006-14.531-9.17-17.066-7.015s-6.013 12.682-6.013 12.682z"/><path d="M224.086 133.858h0a2.1 2.1 0 0 0 2.776-1.077l6.564-14.9a2.15 2.15 0 0 0-1.062-2.816h0c-.511-.228-1.091-.243-1.613-.041s-.94.605-1.163 1.118l-6.564 14.892c-.474 1.073-.002 2.329 1.062 2.824z"/></g><path d="M115.438 468.945s.17 6.88 4.76 8.824 17.883 3.693 12.918 8.118c-2.851 2.54-16.285.9-20.083.9s-7.351 1.679-10.172-.9c-3.1-2.836 0-16.946 0-16.946 1.928.996 4.05 1.56 6.218 1.653a11.94 11.94 0 0 0 6.359-1.649z" class="C"/><g class="F"><path d="M149.546 280.26s.847 28.812-8.213 84.085c-6.514 39.9-14.261 80.107-18.039 99.383-1.227 6.786-6.954 11.841-13.84 12.216l-3.638.145c-7.321.3-13.263-6.083-12.727-13.674l9.19-130.414 2.265-42.922z"/><path d="M130.605 304.813L71.018 467.327a16.51 16.51 0 0 1-15.363 11.87l-3.072.05c-7.246.125-12.787-6.674-11.465-14.075l31.067-161.1c.406-1.859 6.86-2.716 8.694-2.871 15.222-1.278 50.665-3.292 49.726 3.612z"/></g><path d="M97.69 395.819l-.842-.19 12.567-54.5c2.458-7.747 7.693-14.311 14.7-18.429l.431.752a32.02 32.02 0 0 0-14.3 17.908z" fill="#020202"/><path d="M81.771 301.13s32.62-5.482 64.518 1.659c1.473.338 2.467 1.717 2.32 3.222l-1.132 12.086-33.377-8.433z" fill="#436e8e"/><path d="M110.007 186.35l.541-8.383.16-2.44.927-14.351 3.673 13.158 2.2 7.9s1.749 7.376 3.147 8.834c2 2.044 2.56 4.625-1.583 5.427-5.071 1-9.636-.7-13.865-4.009.03-.023 4.675-1.802 4.8-6.136z" class="B"/><path d="M120.945 155.729c1.068 2.282 1.652 4.762 1.714 7.281.125 4.254-6.288-4.725-6.288-4.725z" class="G"/><path d="M123.425 164.067c-2.866-7.591-10.217-11.8-16.42-9.385s-8.914 10.523-6.048 18.109 10.212 11.8 16.415 9.385 8.914-10.517 6.053-18.109z" class="B"/><path d="M121.266 164.833c.06-.026.099-.085.1-.15a.3.3 0 0 0-.165-.3 1.7 1.7 0 0 0-2.355.862c-.049.118-.019.254.075.341a.18.18 0 0 0 .271-.03 2.55 2.55 0 0 1 1.954-.721c.038.017.082.016.12-.002zm-1.578 2.992c.065.586.456 1 .877.977s.707-.561.641-1.147-.456-1-.877-.977-.702.561-.641 1.147z" fill="#060633"/><path d="M106.396 166.151s.937 7.381 2.7 8.383 11.414-.717 15.448-3.538h0a9.7 9.7 0 0 1-5.4 11.3c-1.44.624-2.978.994-4.545 1.092h0c-3.242.2-6.569-.371-8.543-3.006-.6-.8-.757-6.549-.757-6.549s-.331-3.322-2.57-4.545c.012.02 1.681-2.441 3.667-3.137z" class="G"/><path d="M122.814 174.154a24.44 24.44 0 0 1-7.491 2.465 3.77 3.77 0 0 0 5.326 1.874c2.24-1.002 2.165-4.339 2.165-4.339z" fill="#fff"/><path d="M102.486 166.672s24.618-2.41 30.941-9.611-13.309-4.845-13.309-4.845-15.953 14.231-17.632 14.456z" fill="#e28569"/><g class="F"><path d="M74.08 263.561s19.717-8.4 23.19-22.493.777-24.477 16.074-25.735 27.258-3.508 32.354 1.258c4.785 4.51 5.732 60.73 2.505 93.475-.125 1.263-.17 2.335-.255 3.177-1.428 14.03-76.709-1.313-76.709-1.313z"/><path d="M134.684 215.803s-5.106-17.943-10.968-23.676c2.052-.684 4.308-.331 6.053.947 0 0 9.415 11.424 10.192 23.38z"/></g><path d="M263.595 97.969c3.232 13.709-6.133 31.783-22.047 35.641s-32.344-3.928-34.634-17.828c-3.337-20.258 7.015-27.945 22.934-31.8s30.521.287 33.747 13.987z" class="D"/><path d="M211.955 92.86s8.944-9.155 6.6-19.1l13.87-3.367A18.16 18.16 0 0 0 246.57 83.06c-.001.019-16.286 13.648-34.615 9.8z" fill="#f9eaad"/><path d="M218.944 77.441s-4.51.416-4.63-4.74c0 0-3.873-2.565-1.593-6.013 0 0-3.317-2.861-1.7-6.815s19.873-6.764 21.712-5.266 1.639 3.8.25 4.68c0 0 2.505 1.152 2.45 3.362s-1.082 2.886-1.082 2.886 1.829.526 2.626 3.247-1.478 6.996-18.033 8.659z" fill="#9bbcb6"/><path d="M243.362 120.889s4.77-5.011 5.336-11.615 7.205-6.233 9.22-.922-1.388 13.028-5.351 14.431-10.368 3.097-9.205-1.894z" fill="#fff" opacity=".4"/><path d="M214.075 67.034c-.862 0-1.368-.05-1.388-.05l.07-.621a23.74 23.74 0 0 0 13.484-3.277l.326.531a24.33 24.33 0 0 1-12.492 3.417zm.28 5.983h-.03v-.626h0c.22 0 9.41-.035 14.531-3.508l.351.5c-5.231 3.564-14.19 3.634-14.852 3.634z" fill="#7aa098"/><path d="M201.518 132.079s2.064-5.807 1.127-9.741 3.648-12.026 5.422-14.787c2-3.162 3.718-1.769 3.823.576.08 1.814-1.308 4.009-1.032 6.344.626 5.382 1.578 3.883 3.292 9.991s1.568 8.814-1.328 10.267-11.304-2.65-11.304-2.65z" class="B"/><path d="M134.053 218.003a2.11 2.11 0 0 1 2.094-2.125c1.158 0 1.829 1 2.094 2.125.361 1.568-.937 2.125-2.094 2.125a2.11 2.11 0 0 1-2.094-2.125z" class="C"/><g class="E"><path d="M278.808 71.76v-.04c-.12-1.814-8.3-2.9-20.784-3.067h-.471c-6.564-.08-14.3.08-22.648.5l-6.013.346q-4.389.291-8.568.651c-6.313.526-12.206 1.168-17.437 1.874l-3.031.421c-12.256 1.794-20.2 3.9-20.218 5.717.025-21.546 22.162-41.759 49.606-41.759s49.7 15.669 49.7 34.99c-.01.133-.057.26-.136.367z"/><path d="M261.872 187.853a2.2 2.2 0 0 1-.937-.2c-1.5-.692-1.939-3.006-1-5.141a4.95 4.95 0 0 1 2.581-2.651 2.43 2.43 0 0 1 1.894 0c1.5.7 1.939 3.006 1 5.141a4.94 4.94 0 0 1-2.576 2.651 2.76 2.76 0 0 1-.962.2zm1.613-7.376c-.231.004-.46.048-.676.13-.969.444-1.731 1.242-2.13 2.23-.767 1.719-.5 3.588.586 4.094a1.65 1.65 0 0 0 1.283 0 4.12 4.12 0 0 0 2.13-2.23c.772-1.714.5-3.588-.586-4.089-.189-.091-.396-.137-.606-.135z" opacity=".5"/></g><path d="M62.741 468.94s.17 6.885 4.755 8.829 17.888 3.693 12.918 8.118c-2.851 2.54-16.285.9-20.078.9s-7.356 1.679-10.172-.9c-3.1-2.836 0-16.946 0-16.946a14.93 14.93 0 0 0 6.213 1.653c2.234.055 4.439-.518 6.364-1.654z" class="C"/><path d="M112.662 167.677c.054-.056.078-.134.065-.21a.24.24 0 0 0-.276-.206 2.64 2.64 0 0 0-2.36 2.24.25.25 0 0 0 .18.3c.131.019.258-.059.3-.185.43-.821 1.119-1.478 1.959-1.869a.2.2 0 0 0 .135-.07zm-.301 3.35c.281.5.807.772 1.178.566.393-.326.465-.9.165-1.313-.281-.5-.807-.772-1.177-.561a.96.96 0 0 0-.165 1.308z" fill="#060633"/><path d="M92.283 170.966s5.933 7.615 11.62 6.895c0 0-6.013-5.437 2.505-11.71-.005 0-9.014.722-14.125 4.815z" class="G"/><path d="M101.213 173.793c.612.25 1.298.245 1.906-.014s1.087-.75 1.331-1.364c.186-.639.11-1.326-.212-1.909s-.862-1.014-1.502-1.198a2.47 2.47 0 0 0-3.237 1.378c-.186.639-.11 1.326.212 1.909s.862 1.014 1.502 1.198z" class="B"/><path d="M120.119 152.217s-6.98-8.874-18.359-5.742-16.656 12.642-9.475 24.487c6.545-1.495 12.601-4.636 17.593-9.125 8.351-7.496 10.241-9.62 10.241-9.62z" fill="#d16b54"/><path d="M113.794 217.547s-3.913-20.464-11.815-25.184c0 0-4.009-1.413-5.111 0 0 0 9.761 14.942 9.52 27.845z" class="F"/><path d="M110.022 220.837a2.1 2.1 0 0 1 2.089-2.125c1.158 0 1.829 1 2.095 2.125.361 1.568-.937 2.12-2.095 2.12a2.1 2.1 0 0 1-2.089-2.12z" class="C"/><path d="M29.414 293.976l-.646.381c-1.201.73-1.611 2.28-.927 3.508l6.85 11.971a2.54 2.54 0 0 0 3.482.937l.646-.381c1.2-.732 1.607-2.281.922-3.508l-6.85-11.971c-.335-.588-.89-1.017-1.543-1.193s-1.349-.084-1.934.256z" class="B"/><path d="M33.291 224.017c-.471.002-.936-.112-1.353-.331-.723-.401-1.248-1.083-1.453-1.884-.387-1.672-.11-3.428.772-4.9 1.5-2.786 4.2-4.174 6.1-3.162.719.405 1.241 1.085 1.448 1.884.386 1.671.111 3.427-.767 4.9-1.169 2.17-3.068 3.488-4.747 3.493zm2.731-9.561c-1.288 0-2.881 1.163-3.858 2.941h0c-.743 1.233-.988 2.702-.686 4.109.138.529.478.982.947 1.263 1.348.712 3.508-.541 4.705-2.741.748-1.231.994-2.702.686-4.109-.135-.532-.475-.988-.947-1.268a1.8 1.8 0 0 0-.847-.2z" opacity=".5" class="E"/><path d="M9.416 482.534s-12.326-12.567-8.082-19.722 11.414 15.373 11.414 15.373-3.713-26.642 3.974-27.1 0 27.1 0 27.1 2.851-6.429 5.637-6.825 2 5.452-3.006 11.174z" fill="#b9e2fb"/><path d="M10.317 482.85c-2.4-2.533-4.559-5.285-6.449-8.218-3.938-6.228-4.875-11.174-2.786-14.7.777-1.318 1.714-1.924 2.781-1.8 2.125.24 4.625 3.6 7.421 9.976.852 1.944 1.608 3.883 2.2 5.512-.676-6.975-1.468-20.865 2.37-25.555a4.16 4.16 0 0 1 3.006-1.639 3.15 3.15 0 0 1 2.786 1.213c3.452 4.274.331 19.371-1.383 26.437 1.278-2.075 3.092-4.384 4.946-4.65.788-.164 1.59.212 1.969.922 1.117 2.055-.426 7.291-4.946 12.5l-.681-.591c4.445-5.121 5.662-9.951 4.835-11.47a.9.9 0 0 0-1.047-.461c-2.39.341-5.171 5.512-6.043 7.476l-.847-.306c0-.06 1.7-6.133 2.836-12.777 1.478-8.7 1.358-14.406-.341-16.51-.479-.627-1.249-.961-2.034-.882-.946.069-1.814.549-2.375 1.313-4.85 5.923-1.744 28.686-1.714 28.917l-.877.2c-1.608-5.066-6.574-18.294-10.2-18.7-.7-.085-1.318.366-1.9 1.363-4.58 7.722 8.964 21.682 9.1 21.822z" fill="#42428e"/><g class="B"><path d="M21.126 303.471h0a2.12 2.12 0 0 0-2.39 1.8L16.12 323.31c-.168 1.158.624 2.237 1.779 2.425h0a2.12 2.12 0 0 0 2.39-1.8l2.611-18.039c.174-1.158-.618-2.24-1.774-2.425zm5.327.797h0a2.12 2.12 0 0 0-2.39 1.8l-2.921 20.183a2.14 2.14 0 0 0 1.774 2.425h0a2.12 2.12 0 0 0 2.39-1.8l2.926-20.183a2.14 2.14 0 0 0-1.779-2.425zm5.336.796h0c-.556-.078-1.12.067-1.568.405s-.744.839-.822 1.395l-2.34 16.175a2.14 2.14 0 0 0 1.774 2.425h0c.556.078 1.12-.067 1.568-.405s.744-.839.822-1.395l2.349-16.179a2.14 2.14 0 0 0-1.783-2.421z"/><path d="M18.997 292.653s-7.516 9.52-5.6 17.969c.671 2.926 16.43 4.83 18.3 2.054s2.405-13.865 2.405-13.865z"/><path d="M15.835 302.663h0a2.11 2.11 0 0 0-2.385 1.8l-2.34 16.145c-.171 1.156.62 2.235 1.774 2.42h0c1.155.16 2.222-.645 2.385-1.8l2.335-16.145a2.13 2.13 0 0 0-1.769-2.42z"/></g><g fill="none" stroke="#1ea1f3"><path d="M250.884 282.522l-1.136 2.435a1.34 1.34 0 0 1-1.775.646l-20.385-9.486a5.1 5.1 0 0 1-1.19.646c-1.626.59-3.437.359-4.862-.621s-2.29-2.588-2.321-4.318l4.358 2.032.424-.91 1.136-2.435.424-.91-4.358-2.032c1.345-1.089 3.134-1.461 4.801-.998s3.009 1.702 3.602 3.328a5.1 5.1 0 0 1 .27 1.327l20.364 9.519a1.34 1.34 0 0 1 .646 1.775m-25.088 7.121a1.34 1.34 0 0 0 .646 1.775l2.435 1.136a1.34 1.34 0 0 0 1.775-.646l4.383-9.378-4.854-2.26m10.172-19.984l-4.119 4.35.916 2.516-1.736 3.726 3.434 1.601 1.737-3.725 2.517-.916.685-5.95z" stroke-width="1.5"/><path d="M38.698 141.364c6.705-5.486 8.283-4.045 13.138-2.469s10.176-6.016 10.176-6.016m-23.314 14.878c6.705-5.486 8.283-4.045 13.138-2.469s10.176-6.016 10.176-6.016" stroke-width="3"/><path d="M13.474 338.38a12.11 12.11 0 0 1 17.109.598l1.265-1.179 3.538 3.794-1.265 1.179 4.718 5.06-8.853 8.256a12.11 12.11 0 0 1-17.11-.598 12.11 12.11 0 0 1 .598-17.11m3.538 3.794a6.92 6.92 0 0 0-.341 9.778 6.92 6.92 0 0 0 9.778.341 6.92 6.92 0 0 0 .341-9.778 6.92 6.92 0 0 0-9.778-.341m20.734 1.948l6.324-5.897 4.717 5.059-2.53 2.359-2.359-2.53-3.794 3.538z" stroke-width="1.5"/><path d="M266.243 435.508c-16.182 11.882-19.659 8.357-30.705 4.12s-24.283 12.691-24.283 12.691m53.809-24.007c-16.182 11.882-19.659 8.357-30.705 4.12s-24.283 12.691-24.283 12.691" stroke-width="3"/></g></svg>