<svg xmlns="http://www.w3.org/2000/svg" xmlns:xlink="http://www.w3.org/1999/xlink" width="395.98" height="371.997" xmlns:v="https://vecta.io/nano"><path d="M375.864 340.027H30.75s-7-132.729 34.395-134.237 36.727 58.823 88.61-24.132 114.844-78.431 123.005-29.413-15.74 88.234 27.982 76.168 106.683 19.61 71.122 111.614z" fill="#1ea1f3" opacity=".15"/><ellipse cx="197.99" cy="351.746" rx="197.99" ry="20.25" fill="#b9e2fb"/><path d="M118.343 342.007s-9.186-9.361-6.027-14.7 8.5 11.457 8.5 11.457-2.767-19.851 2.961-20.194 0 20.194 0 20.194 2.125-4.787 4.2-5.086 1.494 4.063-2.222 8.327z" fill="#1ea1f3"/><path d="M119.008 342.243a41.76 41.76 0 0 1-4.806-6.12c-2.935-4.645-3.633-8.331-2.076-10.956.579-.978 1.277-1.43 2.073-1.341 1.583.183 3.443 2.685 5.53 7.435.635 1.449 1.2 2.9 1.639 4.108-.508-5.2-1.094-15.549 1.766-19.044a3.09 3.09 0 0 1 2.24-1.225c.803-.072 1.587.27 2.08.907 2.573 3.185.246 14.432-1.031 19.7.952-1.542 2.3-3.264 3.686-3.462.588-.125 1.186.156 1.467.687.833 1.531-.317 5.429-3.686 9.309l-.508-.441c3.312-3.812 4.219-7.416 3.6-8.547a.68.68 0 0 0-.784-.344c-1.778.254-3.85 4.108-4.481 5.571l-.631-.224c0-.045 1.27-4.571 2.11-9.526 1.1-6.479 1.016-10.732-.25-12.3-.356-.469-.931-.718-1.516-.657a2.41 2.41 0 0 0-1.77.979c-3.615 4.41-1.3 21.378-1.277 21.546l-.653.149c-1.2-3.771-4.9-13.63-7.607-13.94-.515-.06-.978.273-1.419 1.016-3.413 5.762 6.684 16.158 6.785 16.262z" fill="#42428e"/><g fill="#1ea1f3"><path d="M147.842 358.141c-.983.002-1.905-.474-2.473-1.276a3.03 3.03 0 0 1-.384-2.757l57.45-162.847c.556-1.576 2.284-2.402 3.859-1.846s2.402 2.284 1.847 3.859l-57.439 162.847a3.03 3.03 0 0 1-2.86 2.02zm-78.077 0c-.982 0-1.903-.476-2.47-1.278s-.71-1.829-.383-2.755l57.45-162.847a3.03 3.03 0 0 1 2.298-1.968 3.02 3.02 0 0 1 2.853 1.007c.703.822.914 1.955.555 2.974L72.622 356.121a3.03 3.03 0 0 1-2.857 2.02z"/><path d="M165.725 304.442l-78.078-.011-2.165 6.135 78.41-.933zm22.245-57.326l-78.078-.011-2.166 6.135 78.414-.934zm11.09-38.463l-78.078-.015-2.166 6.139 78.414-.934zm-9.768 139.468a3.03 3.03 0 0 1-2.924-2.24l-16.273-61.375a3.03 3.03 0 0 1 3.724-3.784 3.03 3.03 0 0 1 2.127 2.234l16.27 61.375c.208.775.099 1.602-.304 2.296a3.02 3.02 0 0 1-1.843 1.404 2.95 2.95 0 0 1-.777.09zM187.362 0h160.942c5.408.003 9.792 4.387 9.795 9.795v48.888a9.8 9.8 0 0 1-9.78 9.8H207.03a29.46 29.46 0 0 1-20.834-8.63c-5.525-5.526-8.629-13.02-8.629-20.835V9.79A9.8 9.8 0 0 1 187.362 0z"/></g><g fill="#ddf1fe"><path d="M191.977 52.05a1.4 1.4 0 0 0-1.012 2.352c5.621 6.215 13.607 9.764 21.987 9.772h110.046a7.72 7.72 0 0 0 7.666-7.778V53.45a1.39 1.39 0 0 0-1.378-1.4z"/><use xlink:href="#B"/><use xlink:href="#B" y="-6.596"/><use xlink:href="#C"/></g><use xlink:href="#C" x="-10.247" fill="#2f1a31"/><g fill="#f7b686"><path d="M87.281 170.361h0c-.377-.028-.75.095-1.037.343a1.42 1.42 0 0 0-.49.975l-.986 12.241a1.44 1.44 0 0 0 1.3 1.553h0a1.43 1.43 0 0 0 1.527-1.318l.982-12.241c.069-.787-.513-1.482-1.3-1.553zm3.624.301h0a1.43 1.43 0 0 0-1.527 1.318l-1.1 13.689c-.034.381.086.76.332 1.052s.6.474.982.505h0a1.43 1.43 0 0 0 1.531-1.318l1.083-13.7a1.44 1.44 0 0 0-1.301-1.546zm1.541-7.047l-.418.288a1.76 1.76 0 0 0-.471 2.412l5.127 7.741c.25.381.643.646 1.09.736s.911-.003 1.289-.258l.418-.288c.784-.544.993-1.613.471-2.412l-5.135-7.741a1.7 1.7 0 0 0-1.086-.731 1.71 1.71 0 0 0-1.285.253z"/><path d="M94.519 170.96h0a1.43 1.43 0 0 0-1.527 1.318l-.881 10.975c-.067.786.514 1.479 1.3 1.55h0c.786.06 1.471-.528 1.531-1.314l.881-10.978a1.44 1.44 0 0 0-1.3-1.55z"/><path d="M85.389 163.187s-4.656 6.721-2.987 12.323c.579 1.934 11.251 2.521 12.39.571s1.019-9.421 1.019-9.421z"/><path d="M83.693 170.049h0a1.42 1.42 0 0 0-1.036.34c-.286.246-.463.597-.491.974l-.878 10.952c-.065.785.516 1.475 1.3 1.546h0c.784.058 1.466-.53 1.524-1.314l.881-10.952a1.43 1.43 0 0 0-1.3-1.546zm13.921-1.825c5.482-15.052 14.518-36.244 26.412-51.729a54.59 54.59 0 0 1 5.758-6.77c1.527-1.494.68-5.915-1.8-8.589-2.33-2.513-6.759-3.421-7.677-2.741-1.561 1.15-3.562 3.63-6.7 7.577-10.9 13.712-20.284 32.711-28.828 58.193zm52.47-78.806l1.639-7.237.478-2.106 2.808-12.386 1.363 11.994.821 7.207.261 2.282c.176 1.55.583 3.734 1.819 5 .5.512 4.234 1.669 1 3.42-4.025 2.181-12.013-.06-15.239-3.536.027.007 4.515-2.3 5.05-4.638z"/><path d="M165.177 70.056c-1.438-7.035-7.252-11.751-13.014-10.538s-9.238 7.9-7.8 14.937S151.626 86.21 157.377 85s9.246-7.908 7.8-14.944z"/></g><g fill="#2f1a31"><path d="M160.409 67.281c6.079-.228 8.757-4 8.589-7.289-.217-4.22-3.107-7.756-6.034-5.975s-1.9-2.143-4.854-2.33c-5.527-.347-6.262 3.678-10.724 4.208-5.889.7-11.89 11.2-6.4 18.107-.017.016 14.624-6.541 19.423-6.721z"/><path d="M165.494 62.625s-6.012 6.815-4.9 10.314 1 4.907-2.644 7.095-.075 5.015-5.1 5.62-11.639-4.981-12.368-14.933c-.234-3.319.632-6.623 2.465-9.4z"/></g><path d="M163.855 72.532a2.18 2.18 0 0 0-3.066-.478c-.887.841-.943 2.235-.127 3.144a2.18 2.18 0 0 0 3.066.482 2.26 2.26 0 0 0 .127-3.148z" fill="#f7b686"/><path d="M142.242 72.606h-.056c-.08-.03-.122-.119-.093-.2a3.94 3.94 0 0 1 2.016-2.058c.08-.034.173.003.209.082.016.039.016.082 0 .12s-.047.069-.086.085a3.73 3.73 0 0 0-1.867 1.867c-.019.055-.066.095-.123.104zm2.042-2.736h-.034s-1.867-.4-1.927-1.96c-.004-.087.063-.16.15-.164s.16.063.164.149c.056 1.314 1.662 1.662 1.68 1.665.078.018.13.091.121.17s-.075.139-.155.14zm17.66-16.021a.96.96 0 0 1-.485-.131c-.851-.485-1.15-2.192-1.161-2.267-.007-.042.002-.085.027-.119s.062-.057.104-.064c.085-.011.164.047.179.131 0 0 .288 1.632 1.008 2.046a.67.67 0 0 0 .616.03c.41-.174.789-.415 1.12-.713a2.7 2.7 0 0 1 2.752-.721c.041.009.077.034.099.07s.028.079.017.12c-.022.083-.106.134-.19.116a2.4 2.4 0 0 0-2.479.657 4.19 4.19 0 0 1-1.2.766 1.12 1.12 0 0 1-.407.079zm-14.475 1.513h-.373c-.087-.007-.151-.083-.144-.17s.083-.151.17-.144c1.594-.006 3.115-.673 4.2-1.841a.16.16 0 0 1 .224 0c.03.029.047.069.047.11s-.017.081-.047.11a6.17 6.17 0 0 1-4.077 1.935zm14.892 20.877c-.892-.054-1.678-.602-2.039-1.419-.019-.035-.008-.079.026-.1s.077-.005.1.026c1.064 1.811 2.345 1.288 2.4 1.266.018-.008.039-.009.058-.002s.034.021.042.039c.015.039-.003.083-.041.1-.175.064-.36.095-.546.09z" fill="#2f1a31"/><path d="M223.568 91.842c1.217-2.987-8.245-8.118-8.245-8.118-1.034-.224-9 18.275-26.285 19.914-6.154.586-17.678-5.836-18.813-7.035-.153-.161-10.269 9.335-10.269 9.335 2.057 2.173 6.609 9.892 14.728 12.842 16.785 6.113 44.066-6.893 48.884-26.938z" fill="#f7b686"/><path d="M148.695 292.306s.112 4.544 3.14 5.829 11.811 2.438 8.529 5.359c-1.867 1.677-10.751.594-13.256.594s-4.854 1.12-6.721-.594c-2.046-1.867 0-11.2 0-11.2a9.93 9.93 0 0 0 4.108 1.094 7.82 7.82 0 0 0 4.2-1.082z" fill="#2f1a31"/><path d="M174.833 155.154s.6 20.5-5.844 59.855c-4.656 28.406-10.15 57.028-12.849 70.751a10.6 10.6 0 0 1-9.851 8.693l-2.592.1a8.92 8.92 0 0 1-9.063-9.735l6.542-92.835 1.613-30.553z" fill="#182f3e"/><path d="M119.997 292.306s.112 4.544 3.144 5.829 11.807 2.438 8.529 5.359c-1.867 1.677-10.754.594-13.26.594s-4.854 1.12-6.721-.594c-2.046-1.867 0-11.2 0-11.2a9.93 9.93 0 0 0 4.108 1.094 7.8 7.8 0 0 0 4.2-1.082z" fill="#2f1a31"/><path d="M146.14 155.154s.6 20.5-5.848 59.855c-4.653 28.406-10.149 57.028-12.845 70.751-.877 4.829-4.954 8.425-9.854 8.693l-2.591.1a8.93 8.93 0 0 1-9.059-9.735l6.538-92.835 1.613-30.553z" fill="#182f3e"/><g fill="#f6dc76"><path d="M126.077 101.509s4.97-12.386 28.548-9.156c34 4.66 25.784 28.723 22.943 59.747 0 0-31.079-1.258-63.727 1.12-.001.026 2.139-33.137 12.236-51.711z"/><path d="M112.932 100.968s4.044 13.51 14.683 17.483c10.1 3.779 45.609 10.314 53.025 4.888 9.944-7.27 4.653-22.371 4.653-22.371s-6.68-1.912-22.5-6.893c-1.494-.47-3.04-.881-4.66-1.221a53.86 53.86 0 0 0-8.215-1c-25.104-1.341-36.986 9.114-36.986 9.114z"/></g><path d="M138.952 223.795h-.037a.2.2 0 0 1-.157-.232c1.57-8.373.926-17.012-1.867-25.06-1.105-3.291-2.678-6.406-4.671-9.249a.2.2 0 0 1 .123-.34.2.2 0 0 1 .191.097c.1.134 10.351 13.641 6.6 34.623a.2.2 0 0 1-.179.161z" fill="#2f1a31"/><g fill="#182f3e"><path d="M114.716 144.864s17.778-13.786 18.551-31.61 9.578-15.71 15.459-15.243 13.962 0 14.888 4.925-2.774 17.588 4.854 29.078 9.974 11.729 9.974 11.729l-4.952 37.021-59.623-6.774z"/><path d="M140.789 107.631l-.616-15.814s3.125-.971 5.1-.082l-.373 16.841zm14.787.944l8.712-13.816s5.336-.579 5.937 1.867l-10.269 15.545z"/></g><path d="M215.894 68.256h0c-.173.085-.372.098-.554.036s-.332-.195-.417-.368l-9.81-20.12c-.174-.364-.029-.8.329-.986h0a.72.72 0 0 1 .971.332l9.81 20.12c.174.364.029.8-.329.986z" fill="#2f1a31"/><path d="M225.629 88.222h0a3.95 3.95 0 0 1-5.314-1.822l-9.029-18.525a4.07 4.07 0 0 1 1.788-5.392h0a3.95 3.95 0 0 1 5.314 1.822l9.033 18.525c.966 1.986.17 4.379-1.792 5.392z" fill="#1ea1f3"/><g fill="#f7b686"><path d="M224.203 85.415l.321.232c.264.188.592.262.912.207a1.21 1.21 0 0 0 .788-.502l4.3-6.154c.388-.56.259-1.327-.291-1.729l-.321-.232a1.22 1.22 0 0 0-.913-.205 1.21 1.21 0 0 0-.787.505l-4.3 6.154a1.26 1.26 0 0 0 .291 1.724zm-2.939-2.117l.28.2a1.24 1.24 0 0 0 .931.214 1.23 1.23 0 0 0 .805-.514l5.594-8a1.28 1.28 0 0 0-.3-1.762l-.28-.2a1.24 1.24 0 0 0-1.736.3l-5.6 8.013a1.28 1.28 0 0 0 .3 1.748zm-4.713 5.348l.5-.026c.951-.064 1.672-.882 1.617-1.833l-.508-9.306a1.73 1.73 0 0 0-1.807-1.643l-.5.03c-.951.064-1.672.882-1.617 1.833l.512 9.306a1.72 1.72 0 0 0 1.8 1.639z"/><path d="M218.445 81.266h0a1.4 1.4 0 0 0 1.975-.34l6.277-8.984a1.46 1.46 0 0 0-.336-2.005h0a1.41 1.41 0 0 0-1.979.344l-6.273 8.962c-.464.652-.314 1.556.336 2.023z"/><path d="M222.387 92.683s7.386-3.361 8.764-9.048c.478-1.964-6.792-10.123-8.749-9.037s-7.229 9.709-7.229 9.709z"/><path d="M227.093 87.529l.411.3c.251.18.564.252.869.2s.576-.225.752-.48l3.462-4.952a1.2 1.2 0 0 0-.276-1.647l-.411-.3c-.251-.18-.564-.252-.869-.199s-.575.225-.751.479l-3.462 4.952a1.2 1.2 0 0 0 .276 1.647z"/></g><path d="M24.951 336.448l2.341 20.646c.217 2.049 1.94 3.607 4 3.618h63.3c2.145-.015 3.907-1.7 4.018-3.842l1.262-21.445c.075-1.124-.321-2.228-1.092-3.05s-1.848-1.286-2.974-1.282l-66.9.8c-1.149.023-2.235.532-2.989 1.4s-1.104 2.015-.965 3.156z" fill="#f6dc76"/><g fill="#182f3e"><path d="M49.152 328.378l-3.45-.986 1.815-6.348c.851-2.988 3.571-5.056 6.677-5.078h16.975a7 7 0 0 1 6.89 6.1l.747 5.6-3.555.47-.747-5.6a3.4 3.4 0 0 0-3.335-2.987H54.193a3.39 3.39 0 0 0-3.226 2.476z"/><path d="M20.288 330.286v2.506c-.017 2.143 1.693 3.9 3.835 3.943l75.016.978c1.046.006 2.052-.407 2.792-1.147s1.153-1.745 1.147-2.792v-2.655a3.92 3.92 0 0 0-3.842-3.943l-75.016-.818c-1.044-.004-2.045.409-2.783 1.148s-1.15 1.741-1.145 2.784z"/></g><g fill="none" stroke="#1ea1f3"><path d="M329.282 125.718l-1.367 2.931a1.61 1.61 0 0 1-2.134.777l-24.514-11.405c-.44.322-.922.584-1.431.778-1.956.71-4.134.432-5.849-.747s-2.754-3.113-2.792-5.193l5.243 2.445.509-1.094 1.368-2.931.51-1.095-5.245-2.446c1.618-1.308 3.768-1.755 5.773-1.199s3.618 2.046 4.332 4c.178.515.287 1.052.324 1.597l24.493 11.448a1.61 1.61 0 0 1 .777 2.134m-30.168 8.563a1.61 1.61 0 0 0 .777 2.134l2.931 1.367a1.61 1.61 0 0 0 2.134-.777l5.271-11.277-5.841-2.725m12.235-24.028l-4.953 5.23 1.102 3.028-2.092 4.486 4.128 1.925 2.092-4.486 3.027-1.102.823-7.156z" stroke-width="1.5"/><path d="M105.753 32.099c-19.46 14.29-23.641 10.051-36.926 4.956S39.63 52.315 39.63 52.315m64.706-28.869c-19.46 14.29-23.641 10.051-36.926 4.956s-29.197 15.26-29.197 15.26" stroke-width="3"/><path d="M294.282 299.515l-.915 1.795 10.771 5.488.915-1.795-10.771-5.488m11.446 35.225c-.495.948-1.347 1.661-2.367 1.982a3.79 3.79 0 0 1-3.052-.221l-28.72-14.634a3.79 3.79 0 0 1-1.973-2.34c-.34-1.014-.264-2.122.213-3.08l3.658-7.18 8.975 4.573-.915 1.795 3.588 1.828.915-1.795 10.771 5.488-.915 1.795 3.59 1.829.915-1.795 8.975 4.573-3.658 7.18m-21.552-35.357a3.7 3.7 0 0 1 4.4-.514l1.203.613.915-1.795a3.99 3.99 0 0 1 5.417-1.762l10.771 5.488a3.99 3.99 0 0 1 1.761 5.419l-.915 1.795 1.203.613a3.7 3.7 0 0 1 2.17 3.862l-.639 10.483-8.221-4.189.914-1.794-3.59-1.829-.915 1.795-10.771-5.488.915-1.795-3.588-1.828-.915 1.795-8.221-4.189z" stroke-width="1.5"/><path d="M327.114 208.801c8.063-6.597 9.961-4.864 15.8-2.969s12.236-7.235 12.236-7.235m-28.036 17.891c8.063-6.597 9.961-4.864 15.8-2.969s12.236-7.235 12.236-7.235" stroke-width="3"/></g><defs ><path id="B" d="M328.203 44.583H187.175c-.312 0-.601-.167-.757-.437s-.156-.604 0-.874.445-.437.757-.437h141.028c.483 0 .874.391.874.874s-.391.874-.874.874z"/><path id="C" d="M328.203 6.288c-.021-1.454-1.215-2.616-2.668-2.598s-2.618 1.209-2.603 2.663 1.204 2.621 2.658 2.609c.702-.006 1.373-.291 1.863-.793s.761-1.179.751-1.881z"/></defs></svg>