<svg xmlns="http://www.w3.org/2000/svg" width="395.98" height="371.997" viewBox="0 0 395.98 371.997"><g data-name="Group 9384" transform="translate(-16.01 -148.003)"><path d="M391.874 488.03H46.76s-7-132.729 34.395-134.237 36.727 58.823 88.61-24.132 114.844-78.431 123.005-29.413-15.74 88.234 27.982 76.168 106.683 19.61 71.122 111.614z" fill="#1ea1f3" data-name="Path 5363" opacity=".15"/><ellipse fill="#b9e2fb" cx="197.99" cy="20.25" data-name="Ellipse 1014" rx="197.99" ry="20.25" transform="translate(16.01 479.499)"/><path d="M134.353 490.01s-9.186-9.361-6.027-14.7 8.5 11.457 8.5 11.457-2.767-19.851 2.961-20.194 0 20.194 0 20.194 2.125-4.787 4.2-5.086 1.494 4.063-2.222 8.327z" fill="#1ea1f3" data-name="Path 5420"/><path d="M135.018 490.246a41.758 41.758 0 0 1-4.806-6.12c-2.935-4.645-3.633-8.331-2.076-10.956.579-.978 1.277-1.43 2.073-1.341 1.583.183 3.443 2.685 5.53 7.435.635 1.449 1.2 2.9 1.639 4.108-.508-5.2-1.094-15.549 1.766-19.044a3.092 3.092 0 0 1 2.24-1.225 2.363 2.363 0 0 1 2.08.907c2.573 3.185.246 14.432-1.031 19.7.952-1.542 2.3-3.264 3.686-3.462a1.344 1.344 0 0 1 1.467.687c.833 1.531-.317 5.429-3.686 9.309l-.508-.441c3.312-3.812 4.219-7.416 3.6-8.547a.679.679 0 0 0-.784-.344c-1.778.254-3.85 4.108-4.481 5.571l-.631-.224c0-.045 1.27-4.571 2.11-9.526 1.1-6.479 1.016-10.732-.25-12.3a1.684 1.684 0 0 0-1.516-.657 2.412 2.412 0 0 0-1.77.979c-3.615 4.41-1.3 21.378-1.277 21.546l-.653.149c-1.2-3.771-4.9-13.63-7.607-13.94-.515-.06-.978.273-1.419 1.016-3.413 5.762 6.684 16.158 6.785 16.262z" fill="#42428e" data-name="Path 5421"/><path d="M163.852 506.144a3.025 3.025 0 0 1-2.857-4.033l57.45-162.847a3.025 3.025 0 0 1 5.706 2.013l-57.439 162.847a3.029 3.029 0 0 1-2.86 2.02z" fill="#1ea1f3" data-name="Path 5396"/><path d="M85.775 506.144a3.025 3.025 0 0 1-2.853-4.033l57.45-162.847a3.025 3.025 0 1 1 5.706 2.013L88.632 504.124a3.032 3.032 0 0 1-2.857 2.02z" fill="#1ea1f3" data-name="Path 5397"/><path d="m181.735 452.445-78.078-.011-2.165 6.135 78.41-.933z" fill="#1ea1f3" data-name="Path 5422"/><path d="m203.98 395.119-78.078-.011-2.166 6.135 78.414-.934z" fill="#1ea1f3" data-name="Path 5398"/><path d="m215.07 356.656-78.078-.015-2.166 6.139 78.414-.934z" fill="#1ea1f3" data-name="Path 5399"/><path d="M205.302 496.124a3.028 3.028 0 0 1-2.924-2.24l-16.273-61.375a3.028 3.028 0 1 1 5.851-1.55l16.27 61.375a3.017 3.017 0 0 1-2.147 3.7 2.954 2.954 0 0 1-.777.09z" fill="#1ea1f3" data-name="Path 5423"/><path d="M203.372 148.003h160.942a9.8 9.8 0 0 1 9.795 9.795v48.888a9.8 9.8 0 0 1-9.78 9.8H223.04a29.463 29.463 0 0 1-29.463-29.465v-29.228a9.8 9.8 0 0 1 9.795-9.79z" fill="#1ea1f3" data-name="Path 5424"/><path d="M207.987 200.053a1.4 1.4 0 0 0-1.012 2.352 29.683 29.683 0 0 0 21.987 9.772h110.046a7.722 7.722 0 0 0 7.666-7.778v-2.946a1.389 1.389 0 0 0-1.378-1.4z" fill="#ddf1fe" data-name="Path 5425"/><path d="M344.213 192.586H203.185a.874.874 0 1 1 0-1.748h141.028a.874.874 0 0 1 0 1.748z" fill="#ddf1fe" data-name="Path 5426"/><path d="M344.213 185.99H203.185a.874.874 0 1 1 0-1.748h141.028a.874.874 0 0 1 0 1.748z" fill="#ddf1fe" data-name="Path 5427"/><path d="M344.213 154.291a2.636 2.636 0 1 0-2.614 2.674 2.636 2.636 0 0 0 2.614-2.674z" fill="#ddf1fe" data-name="Path 5445"/><path d="M333.966 154.291a2.636 2.636 0 1 0-2.614 2.674 2.636 2.636 0 0 0 2.614-2.674z" fill="#2f1a31" data-name="Path 5446"/><path d="M103.291 318.364a1.426 1.426 0 0 0-1.527 1.318l-.986 12.241a1.441 1.441 0 0 0 1.3 1.553 1.43 1.43 0 0 0 1.527-1.318l.982-12.241a1.434 1.434 0 0 0-1.3-1.553z" fill="#f7b686" data-name="Path 5400"/><path d="M106.915 318.665a1.43 1.43 0 0 0-1.527 1.318l-1.1 13.689a1.434 1.434 0 0 0 1.314 1.557 1.43 1.43 0 0 0 1.531-1.318l1.083-13.7a1.438 1.438 0 0 0-1.301-1.546z" fill="#f7b686" data-name="Path 5401"/><path d="m108.456 311.618-.418.288a1.759 1.759 0 0 0-.471 2.412l5.127 7.741a1.706 1.706 0 0 0 2.379.478l.418-.288a1.763 1.763 0 0 0 .471-2.412l-5.135-7.741a1.707 1.707 0 0 0-2.371-.478z" fill="#f7b686" data-name="Path 5402"/><path d="M110.529 318.963a1.43 1.43 0 0 0-1.527 1.318l-.881 10.975a1.434 1.434 0 0 0 1.3 1.55 1.427 1.427 0 0 0 1.531-1.314l.881-10.978a1.438 1.438 0 0 0-1.3-1.55z" fill="#f7b686" data-name="Path 5403"/><path d="M101.399 311.19s-4.656 6.721-2.987 12.323c.579 1.934 11.251 2.521 12.39.571s1.019-9.421 1.019-9.421z" fill="#f7b686" data-name="Path 5394"/><path d="M99.703 318.052a1.423 1.423 0 0 0-1.527 1.314l-.878 10.952a1.434 1.434 0 0 0 1.3 1.546 1.423 1.423 0 0 0 1.524-1.314l.881-10.952a1.43 1.43 0 0 0-1.3-1.546z" fill="#f7b686" data-name="Path 5395"/><path d="M113.624 316.227c5.482-15.052 14.518-36.244 26.412-51.729a54.617 54.617 0 0 1 5.758-6.77c1.527-1.494.68-5.915-1.8-8.589-2.33-2.513-6.759-3.421-7.677-2.741-1.561 1.15-3.562 3.63-6.7 7.577-10.9 13.712-20.284 32.711-28.828 58.193z" fill="#f7b686" data-name="Path 5404"/><path d="m166.094 237.421 1.639-7.237.478-2.106 2.808-12.386 1.363 11.994.821 7.207.261 2.282c.176 1.55.583 3.734 1.819 5 .5.512 4.234 1.669 1 3.42-4.025 2.181-12.013-.06-15.239-3.536.027.007 4.515-2.3 5.05-4.638z" fill="#f7b686" data-name="Path 5405"/><path d="M181.187 218.059c-1.438-7.035-7.252-11.751-13.014-10.538s-9.238 7.9-7.8 14.937 7.263 11.755 13.014 10.545 9.246-7.908 7.8-14.944z" fill="#f7b686" data-name="Path 5406"/><path d="M176.419 215.284c6.079-.228 8.757-4 8.589-7.289-.217-4.22-3.107-7.756-6.034-5.975s-1.9-2.143-4.854-2.33c-5.527-.347-6.262 3.678-10.724 4.208-5.889.7-11.89 11.2-6.4 18.107-.017.016 14.624-6.541 19.423-6.721z" fill="#2f1a31" data-name="Path 5407"/><path d="M181.504 210.628s-6.012 6.815-4.9 10.314 1 4.907-2.644 7.095-.075 5.015-5.1 5.62-11.639-4.981-12.368-14.933a15.135 15.135 0 0 1 2.465-9.4z" fill="#2f1a31" data-name="Path 5408"/><path d="M179.865 220.535a2.179 2.179 0 0 0-3.066-.478 2.256 2.256 0 0 0-.127 3.144 2.18 2.18 0 0 0 3.066.482 2.261 2.261 0 0 0 .127-3.148z" fill="#f7b686" data-name="Path 5428"/><path d="M158.252 220.609h-.056a.157.157 0 0 1-.093-.2 3.936 3.936 0 0 1 2.016-2.058.161.161 0 0 1 .209.082.157.157 0 0 1-.086.205 3.734 3.734 0 0 0-1.867 1.867.157.157 0 0 1-.123.104z" fill="#2f1a31" data-name="Path 5409"/><path d="M160.294 217.873h-.034s-1.867-.4-1.927-1.96a.157.157 0 1 1 .314-.015c.056 1.314 1.662 1.662 1.68 1.665a.157.157 0 0 1-.034.31z" fill="#2f1a31" data-name="Path 5410"/><path d="M177.954 201.852a.959.959 0 0 1-.485-.131c-.851-.485-1.15-2.192-1.161-2.267a.157.157 0 0 1 .131-.183.161.161 0 0 1 .179.131s.288 1.632 1.008 2.046a.672.672 0 0 0 .616.03 4.016 4.016 0 0 0 1.12-.713 2.7 2.7 0 0 1 2.752-.721.153.153 0 0 1 .116.19.161.161 0 0 1-.19.116 2.4 2.4 0 0 0-2.479.657 4.188 4.188 0 0 1-1.2.766 1.121 1.121 0 0 1-.407.079z" fill="#2f1a31" data-name="Path 5429"/><path d="M163.479 203.365h-.373a.158.158 0 0 1 .026-.314 5.763 5.763 0 0 0 4.2-1.841.16.16 0 0 1 .224 0 .153.153 0 0 1 0 .22 6.172 6.172 0 0 1-4.077 1.935z" fill="#2f1a31" data-name="Path 5411"/><path d="M178.371 224.242a2.387 2.387 0 0 1-2.039-1.419.075.075 0 0 1 .026-.1.082.082 0 0 1 .1.026c1.064 1.811 2.345 1.288 2.4 1.266a.075.075 0 0 1 .1.037.078.078 0 0 1-.041.1 1.466 1.466 0 0 1-.546.09z" fill="#2f1a31" data-name="Path 5430"/><path d="M239.578 239.845c1.217-2.987-8.245-8.118-8.245-8.118-1.034-.224-9 18.275-26.285 19.914-6.154.586-17.678-5.836-18.813-7.035-.153-.161-10.269 9.335-10.269 9.335 2.057 2.173 6.609 9.892 14.728 12.842 16.785 6.113 44.066-6.893 48.884-26.938z" fill="#f7b686" data-name="Path 5431"/><path d="M164.705 440.309s.112 4.544 3.14 5.829 11.811 2.438 8.529 5.359c-1.867 1.677-10.751.594-13.256.594s-4.854 1.12-6.721-.594c-2.046-1.867 0-11.2 0-11.2a9.932 9.932 0 0 0 4.108 1.094 7.819 7.819 0 0 0 4.2-1.082z" fill="#2f1a31" data-name="Path 5432"/><path d="M190.843 303.157s.6 20.5-5.844 59.855c-4.656 28.406-10.15 57.028-12.849 70.751a10.6 10.6 0 0 1-9.851 8.693l-2.592.1a8.922 8.922 0 0 1-9.063-9.735l6.542-92.835 1.613-30.553z" fill="#182f3e" data-name="Path 5412"/><path d="M136.007 440.309s.112 4.544 3.144 5.829 11.807 2.438 8.529 5.359c-1.867 1.677-10.754.594-13.26.594s-4.854 1.12-6.721-.594c-2.046-1.867 0-11.2 0-11.2a9.932 9.932 0 0 0 4.108 1.094 7.8 7.8 0 0 0 4.2-1.082z" fill="#2f1a31" data-name="Path 5433"/><path d="M162.15 303.157s.6 20.5-5.848 59.855c-4.653 28.406-10.149 57.028-12.845 70.751a10.605 10.605 0 0 1-9.854 8.693l-2.591.1a8.928 8.928 0 0 1-9.059-9.735l6.538-92.835 1.613-30.553z" fill="#182f3e" data-name="Path 5413"/><path d="M142.087 249.512s4.97-12.386 28.548-9.156c34 4.66 25.784 28.723 22.943 59.747 0 0-31.079-1.258-63.727 1.12-.001.026 2.139-33.137 12.236-51.711z" fill="#f6dc76" data-name="Path 5414"/><path d="M128.942 248.971s4.044 13.51 14.683 17.483c10.1 3.779 45.609 10.314 53.025 4.888 9.944-7.27 4.653-22.371 4.653-22.371s-6.68-1.912-22.5-6.893a49.075 49.075 0 0 0-4.66-1.221 53.862 53.862 0 0 0-8.215-1c-25.104-1.341-36.986 9.114-36.986 9.114z" fill="#f6dc76" data-name="Path 5415"/><path d="M154.962 371.798h-.037a.2.2 0 0 1-.157-.232 48.934 48.934 0 0 0-1.867-25.06 36.147 36.147 0 0 0-4.671-9.249.2.2 0 1 1 .314-.243c.1.134 10.351 13.641 6.6 34.623a.2.2 0 0 1-.179.161z" fill="#2f1a31" data-name="Path 5416"/><path d="M130.726 292.867s17.778-13.786 18.551-31.61 9.578-15.71 15.459-15.243 13.962 0 14.888 4.925-2.774 17.588 4.854 29.078 9.974 11.729 9.974 11.729l-4.952 37.021-59.623-6.774z" fill="#182f3e" data-name="Path 5417"/><path d="m156.799 255.634-.616-15.814s3.125-.971 5.1-.082l-.373 16.841z" fill="#182f3e" data-name="Path 5418"/><path d="m171.586 256.578 8.712-13.816s5.336-.579 5.937 1.867l-10.269 15.545z" fill="#182f3e" data-name="Path 5419"/><path d="M231.904 216.259a.724.724 0 0 1-.971-.332l-9.81-20.12a.747.747 0 0 1 .329-.986.721.721 0 0 1 .971.332l9.81 20.12a.747.747 0 0 1-.329.986z" fill="#2f1a31" data-name="Path 5434"/><path d="M241.639 236.225a3.951 3.951 0 0 1-5.314-1.822l-9.029-18.525a4.067 4.067 0 0 1 1.788-5.392 3.951 3.951 0 0 1 5.314 1.822l9.033 18.525a4.066 4.066 0 0 1-1.792 5.392z" fill="#1ea1f3" data-name="Path 5435"/><path d="m240.213 233.418.321.232a1.214 1.214 0 0 0 1.7-.295l4.3-6.154a1.255 1.255 0 0 0-.291-1.729l-.321-.232a1.214 1.214 0 0 0-1.7.3l-4.3 6.154a1.258 1.258 0 0 0 .291 1.724z" fill="#f7b686" data-name="Path 5436"/><path d="m237.274 231.301.28.2a1.236 1.236 0 0 0 1.736-.3l5.594-8a1.281 1.281 0 0 0-.3-1.762l-.28-.2a1.24 1.24 0 0 0-1.736.3l-5.6 8.013a1.281 1.281 0 0 0 .3 1.748z" fill="#f7b686" data-name="Path 5437"/><path d="m232.561 236.649.5-.026a1.736 1.736 0 0 0 1.617-1.833l-.508-9.306a1.729 1.729 0 0 0-1.807-1.643l-.5.03a1.736 1.736 0 0 0-1.617 1.833l.512 9.306a1.722 1.722 0 0 0 1.8 1.639z" fill="#f7b686" data-name="Path 5438"/><path d="M234.455 229.269a1.4 1.4 0 0 0 1.975-.34l6.277-8.984a1.46 1.46 0 0 0-.336-2.005 1.411 1.411 0 0 0-1.979.344l-6.273 8.962a1.453 1.453 0 0 0 .336 2.023z" fill="#f7b686" data-name="Path 5439"/><path d="M238.397 240.686s7.386-3.361 8.764-9.048c.478-1.964-6.792-10.123-8.749-9.037s-7.229 9.709-7.229 9.709z" fill="#f7b686" data-name="Path 5440"/><path d="m243.103 235.532.411.3a1.154 1.154 0 0 0 1.621-.28l3.462-4.952a1.2 1.2 0 0 0-.276-1.647l-.411-.3a1.154 1.154 0 0 0-1.62.28l-3.462 4.952a1.2 1.2 0 0 0 .276 1.647z" fill="#f7b686" data-name="Path 5441"/><path d="m40.961 484.451 2.341 20.646a4.044 4.044 0 0 0 4 3.618h63.3a4.052 4.052 0 0 0 4.018-3.842l1.262-21.445a4.063 4.063 0 0 0-4.066-4.332l-66.9.8a4.066 4.066 0 0 0-3.954 4.556z" fill="#f6dc76" data-name="Path 5442"/><path d="m65.162 476.381-3.45-.986 1.815-6.348a6.994 6.994 0 0 1 6.677-5.078h16.975a7 7 0 0 1 6.89 6.1l.747 5.6-3.555.47-.747-5.6a3.4 3.4 0 0 0-3.335-2.987H70.203a3.391 3.391 0 0 0-3.226 2.476z" fill="#182f3e" data-name="Path 5443"/><path d="M36.298 478.289v2.506a3.913 3.913 0 0 0 3.835 3.943l75.016.978a3.917 3.917 0 0 0 3.939-3.939v-2.655a3.921 3.921 0 0 0-3.842-3.943l-75.016-.818a3.914 3.914 0 0 0-3.928 3.932z" fill="#182f3e" data-name="Path 5444"/><path d="m345.292 273.72-1.367 2.932a1.611 1.611 0 0 1-2.134.777l-24.514-11.405a6.136 6.136 0 0 1-1.431.778 6.443 6.443 0 0 1-8.641-5.94l5.243 2.445.51-1.094 1.368-2.93.51-1.095-5.244-2.446a6.443 6.443 0 0 1 10.104 2.8 6.137 6.137 0 0 1 .324 1.597l24.492 11.449a1.611 1.611 0 0 1 .777 2.134m-30.167 8.563a1.611 1.611 0 0 0 .776 2.134l2.932 1.367a1.611 1.611 0 0 0 2.134-.777l5.27-11.276-5.84-2.725m12.234-24.028-4.952 5.23 1.102 3.029-2.092 4.486 4.128 1.925 2.092-4.486 3.027-1.102.823-7.156z" fill="none" stroke="#1ea1f3" stroke-width="1.5" data-name="Path / tools"/><path d="M121.763 180.102c-19.46 14.29-23.642 10.052-36.926 4.956s-29.197 15.26-29.197 15.26" fill="none" stroke="#1ea1f3" stroke-width="3" data-name="Path 5390"/><path d="M120.346 171.45c-19.46 14.29-23.642 10.05-36.926 4.955s-29.197 15.26-29.197 15.26" fill="none" stroke="#1ea1f3" stroke-width="3" data-name="Path 5391"/><path d="m310.292 447.518-.915 1.796 10.771 5.488.915-1.795-10.771-5.489m11.446 35.225a4.037 4.037 0 0 1-2.367 1.983 3.792 3.792 0 0 1-3.052-.221l-28.72-14.634a3.792 3.792 0 0 1-1.973-2.34 4.037 4.037 0 0 1 .213-3.08l3.658-7.18 8.975 4.574-.914 1.795 3.588 1.828.914-1.795 10.772 5.488-.915 1.796 3.59 1.829.915-1.795 8.975 4.573-3.659 7.18m-21.552-35.357a3.7 3.7 0 0 1 4.4-.515l1.203.613.915-1.795a3.99 3.99 0 0 1 5.417-1.762l10.771 5.489a3.99 3.99 0 0 1 1.761 5.419l-.915 1.795 1.203.613a3.7 3.7 0 0 1 2.17 3.862l-.639 10.483-8.22-4.19.913-1.793-3.59-1.829-.915 1.795-10.77-5.488.914-1.795-3.588-1.829-.915 1.796-8.221-4.19z" fill="none" stroke="#1ea1f3" stroke-width="1.5" data-name="Path / toolbox"/><path d="M343.124 356.804c8.063-6.597 9.961-4.864 15.8-2.97s12.237-7.235 12.237-7.235" fill="none" stroke="#1ea1f3" stroke-width="3" data-name="Path 5392"/><path d="M343.124 364.49c8.063-6.596 9.961-4.863 15.8-2.968s12.237-7.236 12.237-7.236" fill="none" stroke="#1ea1f3" stroke-width="3" data-name="Path 5393"/></g></svg>