<svg xmlns="http://www.w3.org/2000/svg" xmlns:xlink="http://www.w3.org/1999/xlink" width="395.98" height="364.039" xmlns:v="https://vecta.io/nano"><style><![CDATA[.B{fill:#f7b686}.C{fill:#182f3e}.D{fill:#2f1a31}.E{fill:#1ea1f3}.F{fill:#f6dc76}]]></style><path d="M378.68 276.212H33.566s-7-132.729 34.395-134.237 36.727 58.823 88.61-24.132S271.415 39.412 279.576 88.43s-15.74 88.234 27.982 76.168 106.683 19.61 71.122 111.614z" opacity=".15" class="E"/><g class="F"><path d="M304.757 111.673l-20.158-2.358s-33.405 16.586-44.217 17.258-19.507-16.361-19.507-16.361 9.9-10.616 31.9-15.346l9.654-1.842c44.046-5.384 42.328 18.649 42.328 18.649z"/><path d="M290.839 100.711s-6.424-12.368-34.138-6.706c-8.328 1.7-12.038 6.385-16.174 9.338-6.407 4.573-6.854 8.236-4.3 15.211 5.757 15.784 13.131 38.85-3 62.706 0 0 67.119 18.562 68.619-5.436-.001 0 9.653-41.291-11.007-75.113z"/></g><path d="M304.735 111.683c-.147.568-.867.967-1.959 1.192-2.683.559-7.8.143-13.438-1.236a44.58 44.58 0 0 1-10.577-3.854c-2.063-1.158-3.195-2.293-2.965-3.173s1.921-1.4 4.482-1.431a45.03 45.03 0 0 1 10.9 1.474c5.779 1.409 10.547 3.446 12.571 5.2.769.666 1.129 1.295.986 1.828z" class="D"/><path d="M259.805 89.77l-3.468-6.407-1.014-1.864-5.957-10.972 1.9 11.757 1.14 7.053.36 2.237a6.34 6.34 0 0 1-.8 4.335c-.334.624-1.734 4.084 1.79 4.855 4.4.962 10.257-3.984 12.389-8.167-.033.017-4.936.2-6.34-2.827z" class="B"/><path d="M250.146 74.371c-.063-.023-.112-.074-.13-.139-.034-.114.03-.233.143-.269.986-.361 2.092-.004 2.679.867a.22.22 0 0 1-.034.3.23.23 0 0 1-.3-.039c-.639-.486-1.422-.744-2.224-.733a.2.2 0 0 1-.134.013zm1.451 2.524c-.035.511-.356.91-.724.867-.424-.117-.687-.539-.607-.971.03-.512.355-.91.724-.867s.635.442.607.971z" fill="#060633"/><path d="M267.408 69.322s-1.9 8.236-6.654 9.8c0 0 2.77-6.546-6.229-8.3-.001-.005 7.364-2.814 12.883-1.5z"/><path d="M261.417 74.901a2.17 2.17 0 0 1-3.035.126c-.781-.921-.685-2.297.217-3.1a2.17 2.17 0 0 1 3.035-.126c.781.921.685 2.297-.217 3.1z" class="B"/><path d="M252.678 217.3h0c-.149-.005-.266-.128-.264-.277l.433-15.172c-.433-3.035-3.412-4.834-3.442-4.851a.27.27 0 0 1-.095-.369.27.27 0 0 1 .369-.095c1.917 1.159 3.261 3.068 3.706 5.263.002.014.002.029 0 .043l-.434 15.172c.004.075-.024.147-.075.202s-.123.085-.198.084z" class="D"/><path d="M264.608 148.674h-.234a2.6 2.6 0 0 1-1.869-.867c-1.2-1.431-.563-3.988 1.457-5.826 1.047-1.034 2.461-1.612 3.932-1.608a2.6 2.6 0 0 1 1.868.867c1.205 1.431.564 3.993-1.457 5.831-.999.962-2.312 1.531-3.697 1.603zm3.035-7.439c-1.16.076-2.254.567-3.082 1.383-1.608 1.461-2.237 3.559-1.374 4.578.318.352.766.559 1.24.572 1.227-.01 2.401-.506 3.264-1.379 1.608-1.461 2.237-3.559 1.374-4.582-.318-.351-.766-.556-1.24-.568z" fill="#e08b65" opacity=".5"/><path d="M260.984 119.284c-.007-1.006.802-1.829 1.808-1.838 1 0 1.582.867 1.812 1.838.312 1.357-.811 1.838-1.812 1.838-1.006-.009-1.815-.832-1.808-1.838z" class="D"/><ellipse cx="197.99" cy="282.574" rx="197.99" ry="20.25" fill="#b9e2fb"/><path d="M97.823 89.289l2.718 23.968a4.7 4.7 0 0 0 4.643 4.2h73.487a4.7 4.7 0 0 0 4.669-4.461l1.461-24.9c.087-1.305-.373-2.587-1.268-3.54s-2.146-1.493-3.453-1.489l-77.666.928a4.72 4.72 0 0 0-4.591 5.289z" class="F"/><g class="C"><path d="M125.918 79.916l-4-1.144 2.1-7.37a8.12 8.12 0 0 1 7.751-5.9h19.707c4.061.028 7.478 3.051 8 7.079l.867 6.5-4.127.546-.867-6.5c-.242-1.961-1.895-3.442-3.871-3.468h-19.707c-1.748.02-3.274 1.19-3.746 2.874z"/><path d="M92.41 82.136v2.9c-.017 2.487 1.965 4.527 4.452 4.582l87.085 1.118c1.215.006 2.382-.475 3.24-1.335s1.337-2.028 1.329-3.243v-3.074c.015-2.489-1.972-4.528-4.461-4.578l-87.086-.949c-1.214-.003-2.378.478-3.235 1.338s-1.334 2.026-1.325 3.24z"/></g><path d="M241.442 125.832c-26.331 15.675-57.759 13.985-79.491 9.806l3.355-16.785c26.079 5.011 44.429.113 61.193-9.42 6.329-3.59 25.815 9.936 14.943 16.399z" class="B"/><path d="M74.935 269.668c12.2 6.472 91.26 2.428 120.513.685a11.7 11.7 0 0 0 10.924-11.7l.212-128.094a12.95 12.95 0 0 0-12.537-13.053l-107.7-2.293a7.5 7.5 0 0 0-7.564 7.37c-.861 30.825-15.093 141.119-3.848 147.085z" class="E"/><g fill="#81c6f2"><path d="M132.235 131.216c-.61-2.546-2.807-4.398-5.419-4.569-2.484 0-5.2.715-5.2 5.28 0 2.523 2.714 3.854 5.2 3.854s6.234-1.153 5.419-4.565z"/><use xlink:href="#B"/><use xlink:href="#B" x="16.898"/><path d="M181.997 131.216a5.97 5.97 0 0 0-5.414-4.569c-2.484 0-5.2.715-5.2 5.28 0 2.523 2.714 3.854 5.2 3.854s6.22-1.153 5.414-4.565z"/></g><path d="M109.259 122.928l-17.882.689c-1.632.065-2.946 1.36-3.034 2.991l-.572 9.5a3.17 3.17 0 0 0 3.373 3.377l18.445-1.409a3.17 3.17 0 0 0 2.9-3.182v-8.775c.006-.855-.335-1.676-.944-2.276a3.17 3.17 0 0 0-2.29-.91zm82.495 78.008c0-27.245-21.9-52.185-48.6-49.328-33.1 3.537-48.6 22.082-48.6 49.328s21.762 49.328 48.6 49.328 48.6-22.087 48.6-49.328z" class="C"/><g fill="#81c6f2"><path d="M143.154 253.802c-28.723 0-52.089-15.641-52.089-52.887 0-29.153 10.76-55.314 52.089-52.887 35.114 2.081 51.118 23.734 52.089 52.887 1.284 38.521-23.365 52.887-52.089 52.887zm0-98.66c-29.044-2.462-43.007 25.087-43.007 50.334s18.376 44.789 43.007 41.247c29.218-4.2 41.746-23.327 41.746-48.578s-16.872-43.003-41.746-43.003z"/><path d="M178.987 185.609h9.281V218.1h-7.122c-4.846 0-8.774-3.928-8.774-8.774v-17.1c0-1.755.697-3.438 1.937-4.679s2.923-1.938 4.678-1.938z"/></g><path d="M213.481 267.747s-.156 6.247-4.335 8.007-16.226 3.351-11.7 7.369c2.6 2.3 14.774.815 18.207.815s6.672 1.521 9.229-.815c2.813-2.571 0-15.372 0-15.372a13.6 13.6 0 0 1-5.635 1.5c-2.025.048-4.023-.473-5.766-1.504z" class="D"/><path d="M217.868 273.304a14.27 14.27 0 0 1-16.594-9.381l-5.44-15.961c-9.221-27.375-4.222-41.768 3.628-49.978 11.839-12.376 71.094-28.55 71.722-28.65l5.635 36.028-2.831-18.021 2.813 18.016c0 8.67-53.468 11.669-50.125 27.9.72 3.494 1.426 7.738 2.6 12.762a323.66 323.66 0 0 0 2.419 9.762 13.5 13.5 0 0 1-9.971 16.651zm5.476-52.717zm2.145-3.555z" class="C"/><path d="M239.253 68.056a15.93 15.93 0 0 0 1.3 6.39c1.452 3.4 3.239-6.069 3.239-6.069z"/><ellipse cx="10.478" cy="12.823" rx="10.478" ry="12.823" transform="matrix(.998 -.067 .067 .998 239.479 62.681)" class="B"/><path d="M260.763 70.362l-5.072.52a3.66 3.66 0 0 1-3.034-1.088c-1.348-1.4-2.74-1.977-7.339-.832-5.822 1.452-10.4-1.3-11.7-4.27s1.27-5.826 4.526-4.929 1.235-2.553 3.988-3.542c5.146-1.847 6.979 2.09 11.271 1.045 5.635-1.366 16.724.867 13.959 12.056z"/><g fill="#060633"><use xlink:href="#C"/><use xlink:href="#C" x="6.335" y="-0.83"/><use xlink:href="#D"/><use xlink:href="#D" x="5.797" y="-0.909"/></g><path d="M254.525 70.817s1.946 6.164.923 7.621-9.264 3.719-13.473 3h0c.699 4.053 4.255 6.986 8.367 6.9a11.84 11.84 0 0 0 3.984-.867h0c2.631-1.053 5.05-2.753 5.635-5.557.187-.867-1.786-5.449-1.786-5.449s-.949-2.744.369-4.552a8.14 8.14 0 0 0-4.019-1.096z"/><path d="M244.512 83.302a21.2 21.2 0 0 0 6.8-.867 3.32 3.32 0 0 1-3.511 3.468c-2.153.048-3.289-2.601-3.289-2.601zm-1.18-15.663c-1.186-.118-2.357-.347-3.5-.685-2.38-.724-3.845-1.829-4.24-3.2a2.33 2.33 0 0 1 .117-2.107c.555-.72 1.769-.685 2.839-.659h.464v.143h-.468c-1.036-.026-2.211-.056-2.722.607a2.21 2.21 0 0 0-.091 1.977c.923 3.208 7.547 3.78 7.612 3.784z" fill="#fff"/><path d="M238.599 120.666s21.6-7.66 27.536-2.115 12.2 22.871 23.955 24.961 16.139 4.123 16.139 4.123.087 46.913-7.37 71.575l-47.412-26.236-24.155-9.5s9.468-7.3 10.183-15.606-6.905-44.849 1.124-47.202z" class="C"/><path d="M213.108 152.202s-6.6-5.328-11.462-4.474-10.439 5.674-7.313 5.8a31.43 31.43 0 0 0 7.157-.867c0 0-8.527 2.475-7.092 4.248s8.831-.433 8.831-.433-9.918 3.763-8.029 4.994 9.4-1.682 9.4-1.682-9.1 3.871-6.862 5.25 7.491-3.251 8.921-1.478 7.721 8.327 13.062 4.885z" class="B"/><path d="M201.569 152.843l-.152-.329c.1-.048 2.423-1.105 3.811-.247l-.191.312c-1.223-.759-3.442.255-3.468.264zm1.759 3.8l-.161-.33a6.29 6.29 0 0 1 4.491-.312l-.126.342a6 6 0 0 0-4.204.3zm1.349 3.31l-.152-.334c.117-.052 2.865-1.3 4.266-.269l-.217.295c-1.227-.914-3.867.296-3.897.308z" fill="#dd8964"/><path d="M303.566 109.841l-.975 3.034c-3.283 8.755-8.25 16.783-14.618 23.63-20.73 22.75-51.292 30.375-73.261 32.764l-1.582-17.05c26.391-2.874 42.552-12.957 55.878-27.016 5.029-5.31 8.076-12.749 9.606-17.418.867-2.6 1.253-4.335 1.257-4.361s.087-.091.26-.243a45.03 45.03 0 0 1 10.9 1.474c5.76 1.397 10.528 3.435 12.535 5.186z" class="B"/><path d="M246.435 96.42s-7.911 14.162-7.187 27.228l4.769-.247s1.4-19.6 6.55-28.078c-1.474-.386-3.043.03-4.132 1.097z" class="C"/><g class="F"><use xlink:href="#E"/><use xlink:href="#E" x="20.808" y="-0.629"/></g><path d="M95.205 289.536s-10.66-10.868-6.992-17.058 9.862 13.3 9.862 13.3-3.212-23.045 3.438-23.444 0 23.444 0 23.444 2.467-5.557 4.873-5.9 1.734 4.716-2.579 9.667z" class="E"/><path d="M95.972 289.808a48.51 48.51 0 0 1-5.579-7.105c-3.407-5.389-4.218-9.667-2.41-12.719.672-1.136 1.482-1.66 2.406-1.556 1.838.212 4 3.117 6.42 8.635.737 1.678 1.392 3.36 1.9 4.769-.589-6.03-1.27-18.051 2.051-22.109a3.58 3.58 0 0 1 2.6-1.422 2.74 2.74 0 0 1 2.415 1.053c2.983 3.7.286 16.759-1.2 22.867 1.105-1.791 2.675-3.789 4.279-4.019a1.57 1.57 0 0 1 1.7.8c.967 1.777-.368 6.3-4.278 10.807l-.59-.511c3.845-4.426 4.9-8.605 4.183-9.923a.79.79 0 0 0-.91-.4c-2.063.295-4.469 4.769-5.2 6.468l-.732-.26c0-.052 1.474-5.306 2.449-11.059 1.3-7.521 1.179-12.459-.29-14.279a1.96 1.96 0 0 0-1.76-.763 2.81 2.81 0 0 0-2.059 1.136c-4.192 5.12-1.5 24.818-1.479 25.017l-.759.169c-1.392-4.378-5.687-15.823-8.831-16.182-.6-.069-1.135.317-1.647 1.179-3.962 6.689 7.76 18.757 7.877 18.879z" fill="#42428e"/><path d="M348.694 262.311s6.151.139 7.9 4.361 3.346 16.473 7.291 11.869c2.263-2.631.759-14.995.75-18.489s1.483-6.776-.828-9.364c-2.54-2.848-15.147.044-15.147.044a14.1 14.1 0 0 1 1.5 5.718 11.27 11.27 0 0 1-1.466 5.861z" class="D"/><path d="M260.806 277.509c-11.271-14.041-9.793-64.838-4.292-96.341 3.59-20.557 47.615-21.242 47.091-5.05-.156 4.838-.724 10.213-1.044 16.2-1.522 28.277-11.154 50.4-8.5 53.459 3.793 4.37 36.453-.585 50.633 1.11a9.14 9.14 0 0 1 7.9 7.751l1.153 7.612c.672 4.435-2.835 7.166-6.966 8.774-23.426 9.086-74.414 20.886-85.975 6.485zm32.3-41.521zm-32.122-117.434c-.16-.715 2.657-20.613 8.67-26.318 0 0 2.818-1.1 4.157 0 0 0-7.855 17.7-7.682 27.64z" class="C"/><g fill="none" stroke="#1ea1f3"><path d="M85.89 60.4l-1.367 2.931a1.61 1.61 0 0 1-2.134.777L57.875 52.703a6.11 6.11 0 0 1-1.431.778c-1.956.71-4.134.432-5.849-.747s-2.754-3.113-2.792-5.193l5.243 2.445.509-1.094 1.368-2.931.51-1.095-5.245-2.446c1.618-1.308 3.768-1.755 5.773-1.199s3.618 2.046 4.332 4c.178.515.287 1.052.324 1.597L85.11 58.267a1.61 1.61 0 0 1 .777 2.134M55.72 68.964a1.61 1.61 0 0 0 .777 2.134l2.931 1.367a1.61 1.61 0 0 0 2.134-.777l5.271-11.277-5.841-2.725m12.235-24.028l-4.953 5.23 1.102 3.028-2.092 4.486 4.128 1.925 2.092-4.486 3.027-1.102.823-7.156zm278.581 61.538l-.915 1.795 10.771 5.488.915-1.795-10.771-5.488m11.446 35.225a4.04 4.04 0 0 1-2.367 1.982 3.79 3.79 0 0 1-3.052-.221l-28.72-14.634a3.79 3.79 0 0 1-1.973-2.34c-.34-1.014-.264-2.122.213-3.08l3.658-7.18 8.975 4.573-.915 1.795 3.588 1.828.915-1.795 10.771 5.488-.915 1.795 3.59 1.829.915-1.795 8.975 4.573-3.658 7.18m-21.552-35.357a3.7 3.7 0 0 1 4.4-.514l1.203.613.915-1.795a3.99 3.99 0 0 1 5.417-1.762l10.771 5.488a3.99 3.99 0 0 1 1.761 5.419l-.915 1.795 1.203.613a3.7 3.7 0 0 1 2.17 3.862l-.639 10.483-8.221-4.189.914-1.794-3.59-1.829-.915 1.795-10.771-5.488.915-1.795-3.588-1.828-.915 1.795-8.221-4.189zM187.375 321.264a14.56 14.56 0 0 1 20.576.719l1.524-1.421 4.257 4.565-1.521 1.419 5.674 6.084-10.65 9.931c-5.881 5.484-15.094 5.162-20.578-.719s-5.162-15.094.719-20.578m4.255 4.563a8.32 8.32 0 0 0 11.347 12.168 8.32 8.32 0 0 0-11.347-12.168m24.936 2.339l7.606-7.093 5.674 6.084-3.046 2.841-2.836-3.042-4.56 4.252z" stroke-width="1.5"/><path d="M53.421 320.592c24.117 1.141 24.698 7.067 31.815 19.387s32.294 6.515 32.294 6.515M285.053 13.482c8.063-6.597 9.961-4.864 15.8-2.969s12.236-7.235 12.236-7.235M49.076 328.21c24.117 1.141 24.698 7.067 31.815 19.387s32.294 6.515 32.294 6.515M285.053 21.169c8.063-6.597 9.961-4.864 15.8-2.969s12.236-7.235 12.236-7.235" stroke-width="3"/></g><defs ><path id="B" d="M149.544 131.216a5.98 5.98 0 0 0-5.419-4.569c-2.484 0-5.2.715-5.2 5.28 0 2.523 2.718 3.854 5.2 3.854s6.221-1.153 5.419-4.565z"/><path id="C" d="M242.318 75.36c-.055-.003-.106-.034-.134-.082a.26.26 0 0 1 .026-.3c.25-.33.627-.54 1.039-.578s.821.099 1.128.378a.26.26 0 0 1 .065.295c-.015.043-.049.076-.092.092s-.09.01-.129-.014a2.2 2.2 0 0 0-1.8.165c-.028.026-.065.042-.103.044z"/><path id="D" d="M244.654 77.125c.183.398.039.87-.334 1.1-.347.117-.763-.178-.928-.668a.84.84 0 0 1 .338-1.1c.347-.117.781.182.924.668z"/><path id="E" d="M240.176 121.718a1.82 1.82 0 0 1 1.808-1.838c1 0 1.582.867 1.812 1.838.317 1.357-.81 1.838-1.812 1.838a1.82 1.82 0 0 1-1.808-1.838z"/></defs></svg>