<svg xmlns="http://www.w3.org/2000/svg" width="299.712" height="499.005" viewBox="0 0 299.712 499.005"><g data-name="Group 9385"><g data-name="Group 6452" transform="translate(-31.587 -271.803)"><path d="M235.284 401.241c-15.032 18.329-37.981 43.478-62.183 59.192a79.3 79.3 0 0 1-11.359 6.589c-2.866 1.318-3.833 7.947-1.659 12.943 2.039 4.69 6.985 7.376 10.718 6.449 2.786-.692 1.253 3.006 7.566-.927 21.937-13.744 48.549-40.722 72.911-72.12z" fill="#f7b686" data-name="Path 5114"/><path d="M123.1 480.044s9.465-18.214 33.3-13.82c11.259 2.079 17.948-2.971 20.679 18.074 2.455 18.9-2.571 43.593-5.371 80.172 0 0-17.347-39.845-66.207-26.231 0 0-2.074-18.229 6.689-48.764 2.471-8.614 7.723-3.618 10.91-9.431z" fill="#f6dc76" data-name="Path 5119"/><path d="M103.517 469.332c-1.919 1.874 0 7.2 6.469 13.6s9.48 8.724 12.271 5.587c1.849-2.074 1.638-10.633-5.011-16.034-5.201-4.18-12.361-4.491-13.729-3.153z" fill="#2f1a31" data-name="Path 5122"/><path d="M67.83 574.177c9.55-21.777 24.943-52.3 44.039-74.089a80.454 80.454 0 0 1 9.175-9.47c2.4-2.059 1.563-8.7-1.864-12.918-3.212-3.953-8.694-5.171-12.026-3.257-2.505 1.433-4.7 3.482-9.721 9.019-17.442 19.266-33.161 46.515-48.218 83.439z" fill="#f7b686" data-name="Path 5130"/><path d="m102.2 469.854 18.2 20.74s42.09 19.928 55.739-.13c9.971-14.671-1.528-31.347-1.528-31.347a50.511 50.511 0 0 1-23.651 5.472c-3.6-.13-12.722.431-16.26.316-24.678-.818-32.5 4.949-32.5 4.949z" fill="#f6dc76" data-name="Path 5120"/><path d="M322.598 759.622H35.618s-5.817-110.371 28.6-111.625 30.54 48.914 73.684-20.067 95.5-65.219 102.285-24.457-13.088 73.371 23.27 63.332 88.711 16.31 59.141 92.817z" fill="#1ea1f3" data-name="Path 5447" opacity=".15"/><ellipse fill="#b9e2fb" cx="143.472" cy="11.453" data-name="Ellipse 1012" rx="143.472" ry="11.453" transform="translate(32.032 747.902)"/><path d="M310.395 343.522c.125 2.1-10.6 4.64-26.427 6.594l-2.791.331c-6.113.7-12.9 1.308-20.043 1.774-6.063.4-11.875.656-17.262.787q-2.921.075-5.667.1c-15.919.13-26.868-1-27-3.087-.115-1.819 7.862-3.953 20.223-5.752 1-.145 2-.286 3.031-.426 5.226-.7 11.119-1.343 17.427-1.874q4.179-.351 8.568-.646c2.039-.135 4.059-.251 6.013-.351 8.353-.436 16.089-.606 22.654-.5h.471c12.505.139 20.683 1.242 20.803 3.05z" fill="#cfe2de" data-name="Path 5106"/><path d="M260.8 311.839a2.135 2.135 0 0 1-2.135-2.135v-35.771a2.13 2.13 0 0 1 2.135-2.13 2.129 2.129 0 0 1 2.135 2.13v35.772a2.135 2.135 0 0 1-2.135 2.135z" fill="#2f1a31" data-name="Path 5107"/><path d="M254.611 309.168a6.188 6.188 0 1 1 6.188 6.339 6.263 6.263 0 0 1-6.188-6.339z" fill="#2f1a31" data-name="Path 5108"/><path d="M250.793 403.425a2.1 2.1 0 0 0 2.781-1.077l7.341-16.641a2.159 2.159 0 0 0-1.062-2.826 2.109 2.109 0 0 0-2.786 1.082l-7.336 16.651a2.155 2.155 0 0 0 1.062 2.811z" fill="#f7b686" data-name="Path 5109"/><path d="M245.872 401.19a2.1 2.1 0 0 0 2.781-1.077l8.208-18.62a2.155 2.155 0 0 0-1.062-2.826 2.1 2.1 0 0 0-2.781 1.077l-8.208 18.625a2.155 2.155 0 0 0 1.062 2.821z" fill="#f7b686" data-name="Path 5110"/><path d="M240.932 398.961a2.1 2.1 0 0 0 2.781-1.082l6.579-14.927a2.15 2.15 0 0 0-1.062-2.821 2.1 2.1 0 0 0-2.781 1.077l-6.577 14.927a2.16 2.16 0 0 0 1.062 2.826z" fill="#f7b686" data-name="Path 5111"/><path d="M249.951 414.424s9.8-7.085 10.187-15.754c.135-3.006-14.531-9.17-17.066-7.015s-6.013 12.682-6.013 12.682z" fill="#f7b686" data-name="Path 5112"/><path d="M255.673 405.661a2.1 2.1 0 0 0 2.776-1.077l6.564-14.9a2.15 2.15 0 0 0-1.062-2.816 2.095 2.095 0 0 0-2.776 1.077l-6.564 14.892a2.155 2.155 0 0 0 1.062 2.824z" fill="#f7b686" data-name="Path 5113"/><path d="M147.025 740.748s.17 6.88 4.76 8.824 17.883 3.693 12.918 8.118c-2.851 2.54-16.285.9-20.083.9s-7.351 1.679-10.172-.9c-3.1-2.836 0-16.946 0-16.946a14.934 14.934 0 0 0 6.218 1.653 11.942 11.942 0 0 0 6.359-1.649z" fill="#2f1a31" data-name="Path 5115"/><path d="M181.133 552.063s.847 28.812-8.213 84.085c-6.514 39.9-14.261 80.107-18.039 99.383a14.886 14.886 0 0 1-13.84 12.216l-3.638.145c-7.321.3-13.263-6.083-12.727-13.674l9.19-130.414 2.265-42.922z" fill="#182f3e" data-name="Path 5117"/><path d="M162.192 576.616 102.605 739.13A16.511 16.511 0 0 1 87.242 751l-3.072.05c-7.246.125-12.787-6.674-11.465-14.075l31.067-161.1c.406-1.859 6.86-2.716 8.694-2.871 15.222-1.278 50.665-3.292 49.726 3.612z" fill="#182f3e" data-name="Path 5118"/><path d="m129.277 667.622-.842-.19 12.567-54.5a32.926 32.926 0 0 1 14.7-18.429l.431.752a32.019 32.019 0 0 0-14.3 17.908z" fill="#020202" data-name="Path 5121"/><path d="M113.358 572.933s32.62-5.482 64.518 1.659a3.006 3.006 0 0 1 2.32 3.222l-1.132 12.086-33.377-8.433z" fill="#436e8e" data-name="Path 5123"/><path d="m141.594 458.153.541-8.383.16-2.44.927-14.351 3.673 13.158 2.2 7.9s1.749 7.376 3.147 8.834c2 2.044 2.56 4.625-1.583 5.427-5.071 1-9.636-.7-13.865-4.009.03-.023 4.675-1.802 4.8-6.136z" fill="#f7b686" data-name="Path 5132"/><path d="M152.532 427.532a18.234 18.234 0 0 1 1.714 7.281c.125 4.254-6.288-4.725-6.288-4.725z" fill="#56335b" data-name="Path 5133"/><path d="M155.012 435.87c-2.866-7.591-10.217-11.8-16.42-9.385s-8.914 10.523-6.048 18.109 10.212 11.8 16.415 9.385 8.914-10.517 6.053-18.109z" fill="#f7b686" data-name="Path 5134"/><path d="M152.853 436.636a.165.165 0 0 0 .1-.15.3.3 0 0 0-.165-.3 1.7 1.7 0 0 0-2.355.862.306.306 0 0 0 .075.341.18.18 0 0 0 .271-.03 2.55 2.55 0 0 1 1.954-.721.146.146 0 0 0 .12-.002z" fill="#060633" data-name="Path 5137"/><path d="M151.275 439.628c.065.586.456 1 .877.977s.707-.561.641-1.147-.456-1-.877-.977-.702.561-.641 1.147z" fill="#060633" data-name="Path 5138"/><path d="M137.983 437.954s.937 7.381 2.7 8.383 11.414-.717 15.448-3.538a9.7 9.7 0 0 1-5.4 11.3 13.576 13.576 0 0 1-4.545 1.092c-3.242.2-6.569-.371-8.543-3.006-.6-.8-.757-6.549-.757-6.549s-.331-3.322-2.57-4.545c.012.02 1.681-2.441 3.667-3.137z" fill="#56335b" data-name="Path 5141"/><path d="M154.401 445.957a24.439 24.439 0 0 1-7.491 2.465 3.771 3.771 0 0 0 5.326 1.874c2.24-1.002 2.165-4.339 2.165-4.339z" fill="#fff" data-name="Path 5142"/><path d="M134.073 438.475s24.618-2.41 30.941-9.611-13.309-4.845-13.309-4.845-15.953 14.231-17.632 14.456z" fill="#e28569" data-name="Path 5143"/><path d="M105.667 535.364s19.717-8.4 23.19-22.493.777-24.477 16.074-25.735 27.258-3.508 32.354 1.258c4.785 4.51 5.732 60.73 2.505 93.475-.125 1.263-.17 2.335-.255 3.177-1.428 14.03-76.709-1.313-76.709-1.313z" fill="#182f3e" data-name="Path 5145"/><path d="M166.271 487.606s-5.106-17.943-10.968-23.676a6.674 6.674 0 0 1 6.053.947s9.415 11.424 10.192 23.38z" fill="#182f3e" data-name="Path 5147"/><path d="M295.182 369.772c3.232 13.709-6.133 31.783-22.047 35.641s-32.344-3.928-34.634-17.828c-3.337-20.258 7.015-27.945 22.934-31.8s30.521.287 33.747 13.987z" fill="#f6dc76" data-name="Path 5148"/><path d="M243.542 364.663s8.944-9.155 6.6-19.1l13.87-3.367a18.159 18.159 0 0 0 14.145 12.667c-.001.019-16.286 13.648-34.615 9.8z" fill="#f9eaad" data-name="Path 5149"/><path d="M250.531 349.244s-4.51.416-4.63-4.74c0 0-3.873-2.565-1.593-6.013 0 0-3.317-2.861-1.7-6.815s19.873-6.764 21.712-5.266 1.639 3.8.25 4.68c0 0 2.505 1.152 2.45 3.362s-1.082 2.886-1.082 2.886 1.829.526 2.626 3.247-1.478 6.996-18.033 8.659z" fill="#9bbcb6" data-name="Path 5150"/><g data-name="Group 6442" opacity=".4"><path d="M274.949 392.692s4.77-5.011 5.336-11.615 7.205-6.233 9.22-.922-1.388 13.028-5.351 14.431-10.368 3.097-9.205-1.894z" fill="#fff" data-name="Path 5151"/></g><path d="M245.662 338.837c-.862 0-1.368-.05-1.388-.05l.07-.621a23.746 23.746 0 0 0 13.484-3.277l.326.531a24.332 24.332 0 0 1-12.492 3.417z" fill="#7aa098" data-name="Path 5152"/><path d="M245.942 344.82h-.03v-.626c.22 0 9.41-.035 14.531-3.508l.351.5c-5.231 3.564-14.19 3.634-14.852 3.634z" fill="#7aa098" data-name="Path 5153"/><path d="M233.105 403.882s2.064-5.807 1.127-9.741 3.648-12.026 5.422-14.787c2-3.162 3.718-1.769 3.823.576.08 1.814-1.308 4.009-1.032 6.344.626 5.382 1.578 3.883 3.292 9.991s1.568 8.814-1.328 10.267-11.304-2.65-11.304-2.65z" fill="#f7b686" data-name="Path 5154"/><path d="M165.64 489.806a2.109 2.109 0 0 1 2.094-2.125c1.158 0 1.829 1 2.094 2.125.361 1.568-.937 2.125-2.094 2.125a2.109 2.109 0 0 1-2.094-2.125z" fill="#2f1a31" data-name="Path 5156"/><path d="M310.395 343.563v-.04c-.12-1.814-8.3-2.9-20.784-3.067h-.471c-6.564-.08-14.3.08-22.648.5-1.974.1-4.009.215-6.013.346q-4.389.291-8.568.651c-6.313.526-12.206 1.168-17.437 1.874l-3.031.421c-12.256 1.794-20.2 3.9-20.218 5.717.025-21.546 22.162-41.759 49.606-41.759s49.7 15.669 49.7 34.99a.716.716 0 0 1-.136.367z" fill="#1ea1f3" data-name="Path 5157"/><g data-name="Group 6443" opacity=".5"><path d="M293.459 459.656a2.2 2.2 0 0 1-.937-.2c-1.5-.692-1.939-3.006-1-5.141a4.95 4.95 0 0 1 2.581-2.651 2.43 2.43 0 0 1 1.894 0c1.5.7 1.939 3.006 1 5.141a4.941 4.941 0 0 1-2.576 2.651 2.762 2.762 0 0 1-.962.2zm1.613-7.376a2.006 2.006 0 0 0-.676.13 4.174 4.174 0 0 0-2.13 2.23c-.767 1.719-.5 3.588.586 4.094a1.648 1.648 0 0 0 1.283 0 4.119 4.119 0 0 0 2.13-2.23c.772-1.714.5-3.588-.586-4.089a1.374 1.374 0 0 0-.606-.135z" fill="#1ea1f3" data-name="Path 5177"/></g><path d="M94.328 740.743s.17 6.885 4.755 8.829 17.888 3.693 12.918 8.118c-2.851 2.54-16.285.9-20.078.9s-7.356 1.679-10.172-.9c-3.1-2.836 0-16.946 0-16.946a14.928 14.928 0 0 0 6.213 1.653 11.944 11.944 0 0 0 6.364-1.654z" fill="#2f1a31" data-name="Path 5116"/><path d="M144.249 439.48a.245.245 0 0 0 .065-.21.241.241 0 0 0-.276-.206 2.641 2.641 0 0 0-2.36 2.24.251.251 0 0 0 .18.3.276.276 0 0 0 .3-.185 4.224 4.224 0 0 1 1.959-1.869.2.2 0 0 0 .135-.07z" fill="#060633" data-name="Path 5135"/><path d="M143.948 442.83c.281.5.807.772 1.178.566a.967.967 0 0 0 .165-1.313c-.281-.5-.807-.772-1.177-.561a.962.962 0 0 0-.165 1.308z" fill="#060633" data-name="Path 5136"/><path d="M123.87 442.769s5.933 7.615 11.62 6.895c0 0-6.013-5.437 2.505-11.71-.005 0-9.014.722-14.125 4.815z" fill="#56335b" data-name="Path 5139"/><path d="M132.8 445.596a2.475 2.475 0 0 0 3.237-1.378 2.505 2.505 0 0 0-1.714-3.107 2.47 2.47 0 0 0-3.237 1.378 2.505 2.505 0 0 0 1.714 3.107z" fill="#f7b686" data-name="Path 5140"/><path d="M151.706 424.02s-6.98-8.874-18.359-5.742-16.656 12.642-9.475 24.487a39.445 39.445 0 0 0 17.593-9.125c8.351-7.496 10.241-9.62 10.241-9.62z" fill="#d16b54" data-name="Path 5144"/><path d="M145.381 489.35s-3.913-20.464-11.815-25.184c0 0-4.009-1.413-5.111 0 0 0 9.761 14.942 9.52 27.845z" fill="#182f3e" data-name="Path 5146"/><path d="M141.609 492.64a2.1 2.1 0 0 1 2.089-2.125c1.158 0 1.829 1 2.095 2.125.361 1.568-.937 2.12-2.095 2.12a2.1 2.1 0 0 1-2.089-2.12z" fill="#2f1a31" data-name="Path 5155"/><path d="m61.001 565.779-.646.381a2.616 2.616 0 0 0-.927 3.508l6.85 11.971a2.54 2.54 0 0 0 3.482.937l.646-.381a2.616 2.616 0 0 0 .922-3.508l-6.85-11.971a2.535 2.535 0 0 0-3.477-.937z" fill="#f7b686" data-name="Path 5126"/><g data-name="Group 6441" opacity=".5"><path d="M64.878 495.82a2.885 2.885 0 0 1-1.353-.331 3.006 3.006 0 0 1-1.453-1.884 6.626 6.626 0 0 1 .772-4.9c1.5-2.786 4.2-4.174 6.1-3.162a3.037 3.037 0 0 1 1.448 1.884 6.646 6.646 0 0 1-.767 4.9c-1.169 2.17-3.068 3.488-4.747 3.493zm2.731-9.561c-1.288 0-2.881 1.163-3.858 2.941a5.656 5.656 0 0 0-.686 4.109 2.085 2.085 0 0 0 .947 1.263c1.348.712 3.508-.541 4.705-2.741a5.607 5.607 0 0 0 .686-4.109 2.065 2.065 0 0 0-.947-1.268 1.8 1.8 0 0 0-.847-.2z" fill="#1ea1f3" data-name="Path 5131"/></g><path d="M41.003 754.337s-12.326-12.567-8.082-19.722 11.414 15.373 11.414 15.373-3.713-26.642 3.974-27.1 0 27.1 0 27.1 2.851-6.429 5.637-6.825 2 5.452-3.006 11.174z" fill="#b9e2fb" data-name="Path 5097"/><path d="M41.904 754.653a56.246 56.246 0 0 1-6.449-8.218c-3.938-6.228-4.875-11.174-2.786-14.7.777-1.318 1.714-1.924 2.781-1.8 2.125.24 4.625 3.6 7.421 9.976a93.942 93.942 0 0 1 2.2 5.512c-.676-6.975-1.468-20.865 2.37-25.555a4.159 4.159 0 0 1 3.006-1.639 3.152 3.152 0 0 1 2.786 1.213c3.452 4.274.331 19.371-1.383 26.437 1.278-2.075 3.092-4.384 4.946-4.65a1.814 1.814 0 0 1 1.969.922c1.117 2.055-.426 7.291-4.946 12.5l-.681-.591c4.445-5.121 5.662-9.951 4.835-11.47a.9.9 0 0 0-1.047-.461c-2.39.341-5.171 5.512-6.043 7.476l-.847-.306c0-.06 1.7-6.133 2.836-12.777 1.478-8.7 1.358-14.406-.341-16.51a2.275 2.275 0 0 0-2.034-.882 3.237 3.237 0 0 0-2.375 1.313c-4.85 5.923-1.744 28.686-1.714 28.917l-.877.2c-1.608-5.066-6.574-18.294-10.2-18.7-.7-.085-1.318.366-1.9 1.363-4.58 7.722 8.964 21.682 9.1 21.822z" fill="#42428e" data-name="Path 5098"/><path d="M52.713 575.274a2.119 2.119 0 0 0-2.39 1.8l-2.616 18.039a2.145 2.145 0 0 0 1.779 2.425 2.119 2.119 0 0 0 2.39-1.8l2.611-18.039a2.135 2.135 0 0 0-1.774-2.425z" fill="#f7b686" data-name="Path 5124"/><path d="M58.04 576.071a2.12 2.12 0 0 0-2.39 1.8l-2.921 20.183a2.139 2.139 0 0 0 1.774 2.425 2.12 2.12 0 0 0 2.39-1.8l2.926-20.183a2.14 2.14 0 0 0-1.779-2.425z" fill="#f7b686" data-name="Path 5125"/><path d="M63.376 576.867a2.115 2.115 0 0 0-2.39 1.8l-2.34 16.175a2.14 2.14 0 0 0 1.774 2.425 2.115 2.115 0 0 0 2.39-1.8l2.349-16.179a2.14 2.14 0 0 0-1.783-2.421z" fill="#f7b686" data-name="Path 5127"/><path d="M50.584 564.456s-7.516 9.52-5.6 17.969c.671 2.926 16.43 4.83 18.3 2.054s2.405-13.865 2.405-13.865z" fill="#f7b686" data-name="Path 5128"/><path d="M47.422 574.466a2.11 2.11 0 0 0-2.385 1.8l-2.34 16.145a2.135 2.135 0 0 0 1.774 2.42 2.115 2.115 0 0 0 2.385-1.8l2.335-16.145a2.13 2.13 0 0 0-1.769-2.42z" fill="#f7b686" data-name="Path 5129"/><path d="m282.471 554.325-1.135 2.435a1.339 1.339 0 0 1-1.775.646l-20.385-9.486a5.1 5.1 0 0 1-1.19.646 5.357 5.357 0 0 1-7.183-4.939l4.357 2.032.425-.91 1.135-2.435.425-.91-4.358-2.032a5.357 5.357 0 0 1 8.403 2.33 5.1 5.1 0 0 1 .27 1.326l20.364 9.52a1.339 1.339 0 0 1 .646 1.774m-25.088 7.122a1.339 1.339 0 0 0 .646 1.775l2.435 1.135a1.339 1.339 0 0 0 1.775-.646l4.383-9.378-4.853-2.26m10.172-19.984-4.119 4.35.916 2.516-1.736 3.726 3.434 1.601 1.736-3.725 2.518-.916.685-5.95z" fill="none" stroke="#1ea1f3" stroke-width="1.5" data-name="Path / tools"/><path d="M70.285 413.167c6.705-5.486 8.283-4.045 13.137-2.47s10.176-6.015 10.176-6.015" fill="none" stroke="#1ea1f3" stroke-width="3" data-name="Path 5449"/><path d="M70.285 419.56c6.705-5.486 8.283-4.045 13.137-2.47s10.176-6.015 10.176-6.015" fill="none" stroke="#1ea1f3" stroke-width="3" data-name="Path 5448"/><path d="M45.06 610.183a12.106 12.106 0 0 1 17.11.598l1.265-1.18 3.538 3.795-1.265 1.18 4.718 5.059-8.853 8.255a12.106 12.106 0 1 1-16.512-17.707m3.538 3.794a6.918 6.918 0 1 0 9.778.341 6.918 6.918 0 0 0-9.778-.341m20.734 1.948 6.324-5.897 4.717 5.059-2.53 2.359-2.359-2.53-3.794 3.538z" fill="none" stroke="#1ea1f3" stroke-width="1.5" data-name="Path / tape-measure"/><path d="M297.83 707.31c-16.182 11.883-19.659 8.357-30.705 4.12s-24.283 12.692-24.283 12.692" fill="none" stroke="#1ea1f3" stroke-width="3" data-name="Path 5451"/><path d="M296.651 700.115c-16.182 11.882-19.659 8.356-30.705 4.12s-24.283 12.691-24.283 12.691" fill="none" stroke="#1ea1f3" stroke-width="3" data-name="Path 5450"/></g></g></svg>