<svg xmlns="http://www.w3.org/2000/svg" width="19.955" height="22.172" viewBox="0 0 19.955 22.172">
  <path id="Path_calendar-month-outline" data-name="Path / calendar-month-outline" d="M7.434,13.086H9.652V15.3H7.434V13.086m15.52-6.652v15.52a2.217,2.217,0,0,1-2.217,2.217H5.217A2.217,2.217,0,0,1,3,21.955V6.434A2.217,2.217,0,0,1,5.217,4.217H6.326V2H8.543V4.217h8.869V2h2.217V4.217h1.109a2.217,2.217,0,0,1,2.217,2.217M5.217,8.652h15.52V6.434H5.217V8.652m15.52,13.3V10.869H5.217V21.955h15.52M16.3,15.3V13.086H18.52V15.3H16.3m-4.434,0V13.086h2.217V15.3H11.869M7.434,17.52H9.652v2.217H7.434V17.52M16.3,19.737V17.52H18.52v2.217H16.3m-4.434,0V17.52h2.217v2.217Z" transform="translate(-3 -2)" fill="#a3a3a3"/>
</svg>
