<svg xmlns="http://www.w3.org/2000/svg" width="58.692" height="58.692" viewBox="0 0 58.692 58.692">
  <g id="Group_9481" data-name="Group 9481" transform="translate(-30.823 -132.766)">
    <g id="Group_9480" data-name="Group 9480">
      <g id="Group_9479" data-name="Group 9479">
        <g id="Group_9478" data-name="Group 9478">
          <g id="Group_9477" data-name="Group 9477">
            <g id="Group_9476" data-name="Group 9476">
              <g id="Group_9475" data-name="Group 9475">
                <g id="Group_9474" data-name="Group 9474">
                  <g id="megaphone_2_" data-name="megaphone (2)" transform="translate(30.823 132.766)">
                    <g id="Group_6616" data-name="Group 6616">
                      <g id="Group_6615" data-name="Group 6615">
                        <g id="Group_6614" data-name="Group 6614">
                          <g id="Group_6613" data-name="Group 6613">
                            <g id="Group_6612" data-name="Group 6612">
                              <g id="XMLID_1673_">
                                <g id="XMLID_1674_">
                                  <g id="XMLID_1675_">
                                    <g id="XMLID_1676_">
                                      <g id="XMLID_1677_">
                                        <g id="XMLID_1678_">
                                          <g id="XMLID_1679_">
                                            <g id="XMLID_1680_">
                                              <g id="XMLID_1681_">
                                                <g id="XMLID_1682_">
                                                  <g id="XMLID_1683_">
                                                    <g id="XMLID_1684_">
                                                      <g id="XMLID_1685_">
                                                        <g id="XMLID_1686_">
                                                          <g id="XMLID_1687_">
                                                            <circle id="Ellipse_1044" data-name="Ellipse 1044" cx="29.236" cy="29.236" r="29.236" fill="#1ea1f3"/>
                                                          </g>
                                                        </g>
                                                      </g>
                                                    </g>
                                                  </g>
                                                </g>
                                              </g>
                                            </g>
                                          </g>
                                        </g>
                                      </g>
                                    </g>
                                  </g>
                                </g>
                              </g>
                            </g>
                          </g>
                        </g>
                      </g>
                    </g>
                    <path id="Path_5604" data-name="Path 5604" d="M107.267,84.36l-9.822-9.822-2.373,4.931L57.264,98.118l16.3,16.295-2.119,1.632,8.641,8.641A29.359,29.359,0,0,0,107.267,84.36Z" transform="translate(-50.7 -65.993)" fill="#0170b5"/>
                    <g id="Group_6617" data-name="Group 6617" transform="translate(4.295 8.545)">
                      <circle id="Ellipse_1045" data-name="Ellipse 1045" cx="6.159" cy="6.159" r="6.159" transform="translate(34.043 21.398) rotate(-76.408)" fill="#00ddc1"/>
                      <path id="Path_5605" data-name="Path 5605" d="M357.928,221.66a6.16,6.16,0,0,1-5.192,6.082,6.262,6.262,0,0,1-.967.076,6.153,6.153,0,0,1-6.159-6.158Z" transform="translate(-310.287 -204.795)" fill="#00baa0"/>
                      <path id="Path_5606" data-name="Path 5606" d="M170.591,299.279h-.471a3.552,3.552,0,0,1-3.552-3.552V280.87h7.574v14.858A3.552,3.552,0,0,1,170.591,299.279Z" transform="translate(-151.769 -257.217)" fill="#f3f5f9"/>
                      <path id="Path_5607" data-name="Path 5607" d="M42.474,171.037h4.062l2.311-6.558-2.311-8.5H42.474a5,5,0,0,0-5,5v5.051A5,5,0,0,0,42.474,171.037Z" transform="translate(-37.471 -146.643)" fill="#ffe05c"/>
                      <path id="Path_5608" data-name="Path 5608" d="M48.846,222.631l-2.31,6.555v0H42.474a5,5,0,0,1-5-5V221.66H48.583Z" transform="translate(-37.47 -204.795)" fill="#ffbc00"/>
                      <path id="Path_5609" data-name="Path 5609" d="M143.17,118.843v23.572a95.492,95.492,0,0,0-26.614-4.257V123.1A95.493,95.493,0,0,0,143.17,118.843Z" transform="translate(-107.49 -113.764)" fill="#ff5c5c"/>
                      <path id="Path_5610" data-name="Path 5610" d="M143.173,221.66v11.785q-.686-.206-1.427-.42a94.252,94.252,0,0,0-25.186-3.838V221.66Z" transform="translate(-107.494 -204.795)" fill="#d01273"/>
                      <path id="Path_5611" data-name="Path 5611" d="M336.267,74.538h8.2v33.729h-8.2Z" transform="translate(-302.015 -74.538)" fill="#fff"/>
                      <path id="Path_5612" data-name="Path 5612" d="M336.27,221.66h8.2v16.865h-8.2Z" transform="translate(-302.018 -204.795)" fill="#dbdbdb"/>
                    </g>
                  </g>
                </g>
              </g>
            </g>
          </g>
        </g>
      </g>
    </g>
  </g>
</svg>
