<svg xmlns="http://www.w3.org/2000/svg" width="24.005" height="17.458" viewBox="0 0 24.005 17.458">
  <path id="Path_account-star-outline" data-name="Path / account-star-outline" d="M16.276,4a4.364,4.364,0,1,1-4.364,4.364A4.364,4.364,0,0,1,16.276,4m0,2.073a2.291,2.291,0,1,0,2.291,2.291,2.291,2.291,0,0,0-2.291-2.291m0,7.747c2.913,0,8.729,1.451,8.729,4.364v3.273H7.547V18.185c0-2.913,5.816-4.364,8.729-4.364m0,2.073c-3.273,0-6.656,1.593-6.656,2.291v1.2H22.932v-1.2c0-.7-3.415-2.291-6.656-2.291M5.364,14.126,2.637,15.751l.742-3.066L1,10.634l3.132-.273L5.364,7.481l1.211,2.881,3.153.273-2.4,2.051.709,3.066Z" transform="translate(-1 -4)" fill="#a3a3a3"/>
</svg>
