<svg xmlns="http://www.w3.org/2000/svg" width="54.257" height="54.211" viewBox="0 0 54.257 54.211">
  <g id="Group_9417" data-name="Group 9417" transform="translate(-239.76 -457.79)">
    <g id="_034-laptop" data-name="034-laptop" transform="translate(239.76 457.79)">
      <g id="Group_5236" data-name="Group 5236" transform="translate(0 0)">
        <g id="Group_5235" data-name="Group 5235">
          <path id="Path_3815" data-name="Path 3815" d="M27.129.219A27.128,27.128,0,0,0,25.558,54.43H28.7A27.128,27.128,0,0,0,27.129.219Z" transform="translate(0 -0.219)" fill="#1ea1f3"/>
        </g>
      </g>
      <path id="Path_3816" data-name="Path 3816" d="M70.167,157.531l14.6,14.6a27.169,27.169,0,0,0,3.524.435h3.142a27.129,27.129,0,0,0,25.558-27.082c0-.869-.043-1.729-.123-2.577l-10.549-10.549Z" transform="translate(-62.731 -118.353)" fill="#0170b5"/>
      <g id="Group_5262" data-name="Group 5262" transform="translate(7.436 14.003)">
        <g id="Group_5244" data-name="Group 5244" transform="translate(3.204)">
          <g id="Group_5241" data-name="Group 5241">
            <g id="Group_5240" data-name="Group 5240">
              <g id="Group_5239" data-name="Group 5239">
                <g id="Group_5238" data-name="Group 5238">
                  <g id="Group_5237" data-name="Group 5237">
                    <path id="Path_3817" data-name="Path 3817" d="M116.871,153.985H100.4v-21.63h16.473l8.237,11.306Z" transform="translate(-100.398 -132.355)" fill="#7e8a95"/>
                  </g>
                </g>
              </g>
            </g>
          </g>
          <g id="Group_5243" data-name="Group 5243" transform="translate(16.473 0)">
            <g id="Group_5242" data-name="Group 5242">
              <path id="Path_3818" data-name="Path 3818" d="M255.849,132.355h16.473v21.63H255.849Z" transform="translate(-255.849 -132.355)" fill="#4e5a61"/>
            </g>
          </g>
        </g>
        <g id="Group_5249" data-name="Group 5249" transform="translate(5.337 2.061)">
          <g id="Group_5248" data-name="Group 5248">
            <g id="Group_5247" data-name="Group 5247">
              <g id="Group_5246" data-name="Group 5246">
                <g id="Group_5245" data-name="Group 5245">
                  <path id="Path_3819" data-name="Path 3819" d="M134.867,169.279l-14.34-.072v-17.4l14.34.072,6.773,9.9Z" transform="translate(-120.527 -151.808)" fill="#046eff"/>
                </g>
              </g>
            </g>
          </g>
        </g>
        <g id="Group_5252" data-name="Group 5252" transform="translate(19.677 2.133)">
          <g id="Group_5251" data-name="Group 5251">
            <g id="Group_5250" data-name="Group 5250">
              <path id="Path_3820" data-name="Path 3820" d="M255.849,152.484h14.34v17.4h-14.34Z" transform="translate(-255.849 -152.484)" fill="#0051be"/>
            </g>
          </g>
        </g>
        <g id="Group_5260" data-name="Group 5260" transform="translate(0 21.221)">
          <g id="Group_5256" data-name="Group 5256">
            <g id="Group_5255" data-name="Group 5255">
              <g id="Group_5254" data-name="Group 5254">
                <g id="Group_5253" data-name="Group 5253">
                  <path id="Path_3821" data-name="Path 3821" d="M89.845,336.565H70.168v-3.954H87.654l2.191,1.06,2.191,1.007Z" transform="translate(-70.168 -332.611)" fill="#b8c2cc"/>
                </g>
              </g>
            </g>
          </g>
          <g id="Group_5258" data-name="Group 5258" transform="translate(19.677)">
            <g id="Group_5257" data-name="Group 5257">
              <path id="Path_3822" data-name="Path 3822" d="M275.526,336.565H255.849v-2.894l2.191-1.06h17.486Z" transform="translate(-255.849 -332.611)" fill="#7e8a95"/>
            </g>
          </g>
          <g id="Group_5259" data-name="Group 5259" transform="translate(17.486)">
            <path id="Path_3823" data-name="Path 3823" d="M239.1,332.611l-1.734,2.191a2.191,2.191,0,0,1-2.191-2.191Z" transform="translate(-235.175 -332.611)" fill="#0051be"/>
            <path id="Path_3824" data-name="Path 3824" d="M258.04,332.611h-2.191V334.8A2.191,2.191,0,0,0,258.04,332.611Z" transform="translate(-253.658 -332.611)" fill="#00429c"/>
          </g>
        </g>
        <g id="Group_5261" data-name="Group 5261" transform="translate(23.381 4.501)">
          <path id="Path_3825" data-name="Path 3825" d="M296.145,178.3a1.876,1.876,0,1,1-1.877-1.876v-1.59a3.466,3.466,0,1,0,3.466,3.466Z" transform="translate(-290.802 -174.834)" fill="#5ecdf3"/>
          <path id="Path_3826" data-name="Path 3826" d="M323.51,174.833v1.59a1.878,1.878,0,0,1,1.876,1.876h1.59A3.47,3.47,0,0,0,323.51,174.833Z" transform="translate(-320.044 -174.833)" fill="#ffd944"/>
        </g>
        <path id="Path_3827" data-name="Path 3827" d="M168.985,173.5a3.032,3.032,0,0,1-5.164,0,3.032,3.032,0,0,1,5.164,0Z" transform="translate(-153.896 -167.854)" fill="#f7f9fa"/>
        <ellipse id="Ellipse_848" data-name="Ellipse 848" cx="1.149" cy="1.149" rx="1.149" ry="1.149" transform="translate(11.358 4.501)" fill="#4e5a61"/>
        <path id="Path_3828" data-name="Path 3828" d="M276.523,282.516h9.959v1.373h-9.959Z" transform="translate(-254.655 -266.603)" fill="#5ecdf3"/>
        <path id="Path_3829" data-name="Path 3829" d="M276.523,256.063h7.453l.317.686-.317.686h-7.453Z" transform="translate(-254.655 -242.954)" fill="#00ddc1"/>
        <path id="Path_3830" data-name="Path 3830" d="M346.849,256.063h2.506v1.373h-2.506Z" transform="translate(-317.529 -242.954)" fill="#ffd944"/>
        <path id="Path_3831" data-name="Path 3831" d="M154.192,212.265l-4.03,3.494v5.323h2.729V217.8h2.6v3.284h2.729v-5.323Z" transform="translate(-141.685 -203.797)" fill="#00eecf"/>
      </g>
    </g>
  </g>
</svg>
