<svg xmlns="http://www.w3.org/2000/svg" width="54.407" height="54.36" viewBox="0 0 54.407 54.36">
  <g id="Group_9487" data-name="Group 9487" transform="translate(-239 -419.795)">
    <g id="_034-laptop" data-name="034-laptop" transform="translate(239 419.795)">
      <g id="Group_5236" data-name="Group 5236" transform="translate(0 0)">
        <g id="Group_5235" data-name="Group 5235">
          <path id="Path_3815" data-name="Path 3815" d="M27.2.219a27.2,27.2,0,0,0-1.575,54.36h3.151A27.2,27.2,0,0,0,27.2.219Z" transform="translate(0 -0.219)" fill="#1ea1f3"/>
        </g>
      </g>
      <path id="Path_3816" data-name="Path 3816" d="M70.167,157.6l14.638,14.638a27.247,27.247,0,0,0,3.534.436H91.49a27.2,27.2,0,0,0,25.628-27.157c0-.872-.043-1.733-.123-2.584l-10.578-10.578Z" transform="translate(-62.711 -118.314)" fill="#0170b5"/>
      <g id="Group_5262" data-name="Group 5262" transform="translate(7.456 14.041)">
        <g id="Group_5244" data-name="Group 5244" transform="translate(3.212)">
          <g id="Group_5241" data-name="Group 5241">
            <g id="Group_5240" data-name="Group 5240">
              <g id="Group_5239" data-name="Group 5239">
                <g id="Group_5238" data-name="Group 5238">
                  <g id="Group_5237" data-name="Group 5237">
                    <path id="Path_3817" data-name="Path 3817" d="M116.917,154.045H100.4v-21.69h16.519l8.259,11.337Z" transform="translate(-100.398 -132.355)" fill="#7e8a95"/>
                  </g>
                </g>
              </g>
            </g>
          </g>
          <g id="Group_5243" data-name="Group 5243" transform="translate(16.519 0)">
            <g id="Group_5242" data-name="Group 5242">
              <path id="Path_3818" data-name="Path 3818" d="M255.849,132.355h16.519v21.69H255.849Z" transform="translate(-255.849 -132.355)" fill="#4e5a61"/>
            </g>
          </g>
        </g>
        <g id="Group_5249" data-name="Group 5249" transform="translate(5.351 2.067)">
          <g id="Group_5248" data-name="Group 5248">
            <g id="Group_5247" data-name="Group 5247">
              <g id="Group_5246" data-name="Group 5246">
                <g id="Group_5245" data-name="Group 5245">
                  <path id="Path_3819" data-name="Path 3819" d="M134.907,169.328l-14.38-.072V151.808l14.38.072,6.792,9.926Z" transform="translate(-120.527 -151.808)" fill="#046eff"/>
                </g>
              </g>
            </g>
          </g>
        </g>
        <g id="Group_5252" data-name="Group 5252" transform="translate(19.731 2.139)">
          <g id="Group_5251" data-name="Group 5251">
            <g id="Group_5250" data-name="Group 5250">
              <path id="Path_3820" data-name="Path 3820" d="M255.849,152.484h14.38v17.448h-14.38Z" transform="translate(-255.849 -152.484)" fill="#0051be"/>
            </g>
          </g>
        </g>
        <g id="Group_5260" data-name="Group 5260" transform="translate(0 21.28)">
          <g id="Group_5256" data-name="Group 5256">
            <g id="Group_5255" data-name="Group 5255">
              <g id="Group_5254" data-name="Group 5254">
                <g id="Group_5253" data-name="Group 5253">
                  <path id="Path_3821" data-name="Path 3821" d="M89.9,336.576H70.168v-3.965H87.7l2.2,1.063,2.2,1.01Z" transform="translate(-70.168 -332.611)" fill="#b8c2cc"/>
                </g>
              </g>
            </g>
          </g>
          <g id="Group_5258" data-name="Group 5258" transform="translate(19.731)">
            <g id="Group_5257" data-name="Group 5257">
              <path id="Path_3822" data-name="Path 3822" d="M275.58,336.576H255.849v-2.9l2.2-1.063H275.58Z" transform="translate(-255.849 -332.611)" fill="#7e8a95"/>
            </g>
          </g>
          <g id="Group_5259" data-name="Group 5259" transform="translate(17.534)">
            <path id="Path_3823" data-name="Path 3823" d="M239.111,332.611l-1.739,2.2a2.2,2.2,0,0,1-2.2-2.2Z" transform="translate(-235.175 -332.611)" fill="#0051be"/>
            <path id="Path_3824" data-name="Path 3824" d="M258.046,332.611h-2.2v2.2A2.2,2.2,0,0,0,258.046,332.611Z" transform="translate(-253.652 -332.611)" fill="#00429c"/>
          </g>
        </g>
        <g id="Group_5261" data-name="Group 5261" transform="translate(23.445 4.514)">
          <path id="Path_3825" data-name="Path 3825" d="M296.159,178.31a1.882,1.882,0,1,1-1.882-1.882v-1.594a3.476,3.476,0,1,0,3.476,3.476Z" transform="translate(-290.802 -174.834)" fill="#5ecdf3"/>
          <path id="Path_3826" data-name="Path 3826" d="M323.51,174.833v1.594a1.884,1.884,0,0,1,1.882,1.882h1.594A3.48,3.48,0,0,0,323.51,174.833Z" transform="translate(-320.034 -174.833)" fill="#ffd944"/>
        </g>
        <path id="Path_3827" data-name="Path 3827" d="M169,173.509a3.041,3.041,0,0,1-5.179,0,3.041,3.041,0,0,1,5.179,0Z" transform="translate(-153.869 -167.843)" fill="#f7f9fa"/>
        <ellipse id="Ellipse_848" data-name="Ellipse 848" cx="1.152" cy="1.152" rx="1.152" ry="1.152" transform="translate(11.389 4.514)" fill="#4e5a61"/>
        <path id="Path_3828" data-name="Path 3828" d="M276.523,282.516h9.986v1.377h-9.986Z" transform="translate(-254.595 -266.559)" fill="#5ecdf3"/>
        <path id="Path_3829" data-name="Path 3829" d="M276.523,256.063H284l.318.688-.318.688h-7.473Z" transform="translate(-254.595 -242.917)" fill="#00ddc1"/>
        <path id="Path_3830" data-name="Path 3830" d="M346.849,256.063h2.513v1.377h-2.513Z" transform="translate(-317.448 -242.917)" fill="#ffd944"/>
        <path id="Path_3831" data-name="Path 3831" d="M154.2,212.265l-4.041,3.5v5.338H152.9v-3.293h2.609v3.293h2.736v-5.338Z" transform="translate(-141.661 -203.773)" fill="#00eecf"/>
      </g>
    </g>
  </g>
</svg>
