<svg xmlns="http://www.w3.org/2000/svg" width="316.089" height="107" viewBox="0 0 316.089 107">
  <g id="Group_9407" data-name="Group 9407" transform="translate(-57.956 -356)">
    <g id="Group_6456" data-name="Group 6456" transform="translate(-27.956 -29)">
      <g id="Group_6455" data-name="Group 6455" transform="translate(154.724 393)">
        <text id="Frensoo" transform="translate(0.276 63)" font-size="66" font-family="SegoeUI-Bold, Segoe UI" font-weight="700"><tspan x="0" y="0">Frensoo</tspan></text>
        <text id="The_Handyman_App" data-name="The Handyman App" transform="translate(3.276 92)" fill="#1ea1f3" font-size="26" font-family="SegoeUI-Bold, Segoe UI" font-weight="700"><tspan x="0" y="0">The Handyman App</tspan></text>
      </g>
      <path id="Path_circular-saw" data-name="Path / circular-saw" d="M39.931,25.41a3.63,3.63,0,1,1-3.63,3.63,3.63,3.63,0,0,1,3.63-3.63M21.272,8.168A25.411,25.411,0,0,1,65.087,21.78H72.6v7.26H50.821a10.89,10.89,0,1,0-21.78,0H0V21.78H.182A39.84,39.84,0,0,1,9.075,0l12.2,8.168m-4.1,5.953-6.062-4.066A31.394,31.394,0,0,0,7.478,21.78h7.3a24.822,24.822,0,0,1,2.4-7.659M19.6,41.383,14.52,36.3H35.538a5.067,5.067,0,0,0,8.785,0H65.341v5.082c-5.844-3.557-5.59,1.271-5.59,1.271v7.115l-7.115,7.115c-1.815-6.353-5.082-2.8-5.082-2.8L42.472,59.17H32.308c3.557-5.844-1.271-5.59-1.271-5.59H23.922l-7.115-7.115C23.16,44.686,19.6,41.383,19.6,41.383Z" transform="translate(85.912 484.608) rotate(-90)" fill="#1ea1f3"/>
    </g>
  </g>
</svg>
