<svg xmlns="http://www.w3.org/2000/svg" width="23.213" height="20.904" viewBox="0 0 23.213 20.904">
  <path id="Path_storefront" data-name="Path / storefront" d="M5.553,3a2.353,2.353,0,0,0-1.417.488,2.061,2.061,0,0,0-.813,1.254l-1.2,5.121A3.692,3.692,0,0,0,2.8,13.138c.139.139.279.279.406.395a3.428,3.428,0,0,0,2.532,1.08,3.713,3.713,0,0,0,2.613-1.1,3.714,3.714,0,0,0,5.261.023,3.817,3.817,0,0,0,2.671,1.08,3.593,3.593,0,0,0,2.6-1.1,3.627,3.627,0,0,0,2.636,1.1,3.324,3.324,0,0,0,2.543-1.092c.1-.1.209-.221.325-.337A3.7,3.7,0,0,0,25.1,9.863L23.9,4.742a2.343,2.343,0,0,0-.848-1.254A2.184,2.184,0,0,0,21.672,3m-.058,2.288,1.254,5.121a1.563,1.563,0,0,1-.325,1.359,1.325,1.325,0,0,1-1.092.523,1.2,1.2,0,0,1-.929-.395,1.536,1.536,0,0,1-.43-.952l-.708-5.621m-13.831,0H7.841l-.708,5.621c-.139.917-.592,1.347-1.359,1.347a1.241,1.241,0,0,1-1.092-.523,1.563,1.563,0,0,1-.325-1.359m5.83-5.087h2.265v5.458a1.5,1.5,0,0,1-.418,1.068,1.436,1.436,0,0,1-1.092.441,1.2,1.2,0,0,1-1-.476,1.678,1.678,0,0,1-.395-1.08v-.186m5.226-5.226h2.265l.639,5.226a1.309,1.309,0,0,1-.337,1.243,1.466,1.466,0,0,1-1.173.5,1.313,1.313,0,0,1-.976-.441,1.5,1.5,0,0,1-.418-1.068M3.16,15.809v5.772A2.315,2.315,0,0,0,5.483,23.9H21.742a2.322,2.322,0,0,0,2.323-2.323V15.833a3.433,3.433,0,0,1-2.323,1.1,3.637,3.637,0,0,1-2.857-1.1,3.688,3.688,0,0,1-2.6,1.1,3.856,3.856,0,0,1-2.671-1.08,3.634,3.634,0,0,1-2.578,1.08,3.735,3.735,0,0,1-2.683-1.1,3.634,3.634,0,0,1-2.6,1.1A3.591,3.591,0,0,1,3.16,15.809Z" transform="translate(-2.005 -3)" fill="#a3a3a3"/>
</svg>
