<svg xmlns="http://www.w3.org/2000/svg" width="54.114" height="54.156" viewBox="0 0 54.114 54.156">
  <g id="Group_9492" data-name="Group 9492" transform="translate(-232.408 -720.344)">
    <g id="_008-washing_machine" data-name="008-washing machine" transform="translate(232.408 720.344)">
      <g id="Group_7324" data-name="Group 7324" transform="translate(0)">
        <g id="Group_7323" data-name="Group 7323" transform="translate(0)">
          <g id="Group_7322" data-name="Group 7322">
            <g id="Group_7321" data-name="Group 7321">
              <g id="Group_7320" data-name="Group 7320">
                <g id="Group_7319" data-name="Group 7319">
                  <g id="Group_7318" data-name="Group 7318">
                    <g id="Group_7317" data-name="Group 7317">
                      <g id="Group_7316" data-name="Group 7316">
                        <g id="Group_7315" data-name="Group 7315">
                          <g id="Group_7314" data-name="Group 7314">
                            <g id="Group_7313" data-name="Group 7313">
                              <g id="Group_7312" data-name="Group 7312">
                                <g id="Group_7311" data-name="Group 7311">
                                  <g id="Group_7310" data-name="Group 7310">
                                    <g id="Group_7309" data-name="Group 7309">
                                      <g id="Group_7308" data-name="Group 7308">
                                        <g id="Group_7307" data-name="Group 7307">
                                          <ellipse id="Ellipse_1163" data-name="Ellipse 1163" cx="27.004" cy="27.004" rx="27.004" ry="27.004" fill="#1ea1f3"/>
                                        </g>
                                      </g>
                                    </g>
                                  </g>
                                </g>
                              </g>
                            </g>
                          </g>
                        </g>
                      </g>
                    </g>
                  </g>
                </g>
              </g>
            </g>
          </g>
        </g>
      </g>
      <path id="Path_6614" data-name="Path 6614" d="M147.979,68.684l-7.913-7.913L121.226,99.01l8.972,8.972A27.095,27.095,0,0,0,162.56,81.421c0-.6-.022-1.2-.061-1.8L149.737,66.862Z" transform="translate(-108.445 -54.343)" fill="#0170b5"/>
      <g id="Group_7349" data-name="Group 7349" transform="translate(12.781 12.519)">
        <g id="Group_7331" data-name="Group 7331" transform="translate(0 7.192)">
          <g id="Group_7328" data-name="Group 7328">
            <g id="Group_7327" data-name="Group 7327">
              <g id="Group_7326" data-name="Group 7326">
                <g id="Group_7325" data-name="Group 7325">
                  <path id="Path_6615" data-name="Path 6615" d="M135.482,211.306H121.226V186.35h14.256l7.128,14.276Z" transform="translate(-121.226 -186.35)" fill="#dbe1e8"/>
                </g>
              </g>
            </g>
          </g>
          <g id="Group_7330" data-name="Group 7330" transform="translate(14.256 0)">
            <g id="Group_7329" data-name="Group 7329">
              <path id="Path_6616" data-name="Path 6616" d="M256,186.35h14.256v24.956H256Z" transform="translate(-256 -186.35)" fill="#b8c2cc"/>
            </g>
          </g>
        </g>
        <g id="Group_7332" data-name="Group 7332" transform="translate(6.107 11.279)">
          <path id="Path_6617" data-name="Path 6617" d="M191.749,233.181l-4.6,8.189a8.189,8.189,0,0,1,0-16.378Z" transform="translate(-178.961 -224.992)" fill="#7e8a95"/>
          <path id="Path_6618" data-name="Path 6618" d="M264.57,233.18a8.189,8.189,0,0,1-8.189,8.189V224.991A8.189,8.189,0,0,1,264.57,233.18Z" transform="translate(-248.192 -224.991)" fill="#4e5a61"/>
        </g>
        <g id="Group_7339" data-name="Group 7339">
          <g id="Group_7336" data-name="Group 7336">
            <g id="Group_7335" data-name="Group 7335">
              <g id="Group_7334" data-name="Group 7334">
                <g id="Group_7333" data-name="Group 7333">
                  <path id="Path_6619" data-name="Path 6619" d="M135.482,125.548H121.226v-7.192h14.256l7.128,4.114Z" transform="translate(-121.226 -118.356)" fill="#f7f9fa"/>
                </g>
              </g>
            </g>
          </g>
          <g id="Group_7338" data-name="Group 7338" transform="translate(14.256)">
            <g id="Group_7337" data-name="Group 7337">
              <path id="Path_6620" data-name="Path 6620" d="M256,118.356h14.256v7.192H256Z" transform="translate(-256 -118.356)" fill="#dbe1e8"/>
            </g>
          </g>
        </g>
        <g id="Group_7346" data-name="Group 7346" transform="translate(0 6.34)">
          <g id="Group_7343" data-name="Group 7343">
            <g id="Group_7342" data-name="Group 7342">
              <g id="Group_7341" data-name="Group 7341">
                <g id="Group_7340" data-name="Group 7340">
                  <path id="Path_6621" data-name="Path 6621" d="M135.482,180H121.226v-1.7h14.256l7.128.975Z" transform="translate(-121.226 -178.295)" fill="#7e8a95"/>
                </g>
              </g>
            </g>
          </g>
          <g id="Group_7345" data-name="Group 7345" transform="translate(14.256)">
            <g id="Group_7344" data-name="Group 7344">
              <path id="Path_6622" data-name="Path 6622" d="M256,178.295h14.256V180H256Z" transform="translate(-256 -178.295)" fill="#4e5a61"/>
            </g>
          </g>
        </g>
        <path id="Path_6623" data-name="Path 6623" d="M151.976,137.108H145.56a1.5,1.5,0,1,1,0-3.009h6.417a1.5,1.5,0,1,1,0,3.009Z" transform="translate(-141.64 -132.434)" fill="#046eff"/>
        <ellipse id="Ellipse_1164" data-name="Ellipse 1164" cx="1.609" cy="1.609" rx="1.609" ry="1.609" transform="translate(22.921 1.561)" fill="#7e8a95"/>
        <ellipse id="Ellipse_1165" data-name="Ellipse 1165" cx="1.609" cy="1.609" rx="1.609" ry="1.609" transform="translate(17.732 1.561)" fill="#7e8a95"/>
        <g id="Group_7347" data-name="Group 7347" transform="translate(7.641 12.813)">
          <path id="Path_6624" data-name="Path 6624" d="M203.854,246.147l-3.737,5.092-6.655-5.092a6.655,6.655,0,0,1,6.655-6.655Z" transform="translate(-193.461 -239.492)" fill="#f7f9fa"/>
          <path id="Path_6625" data-name="Path 6625" d="M263.035,246.147l-6.655,5.65V239.492A6.655,6.655,0,0,1,263.035,246.147Z" transform="translate(-249.725 -239.492)" fill="#dbe1e8"/>
        </g>
        <g id="Group_7348" data-name="Group 7348" transform="translate(7.641 19.468)">
          <path id="Path_6626" data-name="Path 6626" d="M200.116,302.411l2.082,2.948-2.082,3.708a6.655,6.655,0,0,1-6.655-6.655Z" transform="translate(-193.461 -302.411)" fill="#9de1f7"/>
          <path id="Path_6627" data-name="Path 6627" d="M263.035,302.411a6.655,6.655,0,0,1-6.655,6.655v-6.655Z" transform="translate(-249.725 -302.411)" fill="#5ecdf3"/>
        </g>
        <ellipse id="Ellipse_1166" data-name="Ellipse 1166" cx="1.879" cy="1.879" rx="1.879" ry="1.879" transform="translate(4.589 17.589)" fill="#7e8a95"/>
      </g>
      <g id="Group_7352" data-name="Group 7352" transform="translate(20.559 4.527)">
        <g id="Group_7350" data-name="Group 7350">
          <path id="Path_6628" data-name="Path 6628" d="M207.719,49.275l-6.477,6.477a6.477,6.477,0,1,1,0-12.954Z" transform="translate(-194.765 -42.798)" fill="#ff6379"/>
          <path id="Path_6629" data-name="Path 6629" d="M262.477,49.275A6.477,6.477,0,0,1,256,55.752V42.8A6.477,6.477,0,0,1,262.477,49.275Z" transform="translate(-249.523 -42.798)" fill="#ff415b"/>
        </g>
        <g id="Group_7351" data-name="Group 7351" transform="translate(1.162 2.561)">
          <path id="Path_6630" data-name="Path 6630" d="M211.062,67.006a6.846,6.846,0,0,0-5.315,2.531l.763.763a5.777,5.777,0,0,1,4.553-2.221l.531-.5Zm-3.841,4,.76.76a4.024,4.024,0,0,1,3.081-1.436l.531-.49-.531-.583A5.093,5.093,0,0,0,207.221,71.011ZM210,74.872a1.065,1.065,0,0,0,1.065,1.065l.266-1.106-.266-1.024A1.065,1.065,0,0,0,210,74.872Zm-1.295-2.38.758.758a2.273,2.273,0,0,1,1.6-.659l.531-.5-.531-.569A3.343,3.343,0,0,0,208.7,72.492Z" transform="translate(-205.747 -67.006)" fill="#f7f9fa"/>
          <path id="Path_6631" data-name="Path 6631" d="M256,69.262v1.073a4.024,4.024,0,0,1,3.081,1.436l.76-.76A5.093,5.093,0,0,0,256,69.262Zm0,3.329a2.273,2.273,0,0,1,1.6.659l.758-.758a3.342,3.342,0,0,0-2.36-.974Zm0-5.586v1.073a5.777,5.777,0,0,1,4.553,2.221l.763-.763A6.845,6.845,0,0,0,256,67.006Zm0,6.8v2.13a1.065,1.065,0,1,0,0-2.13Z" transform="translate(-250.685 -67.006)" fill="#dbe1e8"/>
        </g>
      </g>
    </g>
  </g>
</svg>
