<svg xmlns="http://www.w3.org/2000/svg" width="58.883" height="58.103" viewBox="0 0 58.883 58.103">
  <g id="Group_9413" data-name="Group 9413" transform="translate(-235 -340)">
    <g id="_030-circular_saw" data-name="030-circular saw" transform="translate(234.969 340.486)">
      <ellipse id="Ellipse_753" data-name="Ellipse 753" cx="28.5" cy="29" rx="28.5" ry="29" transform="translate(0.032 -0.486)" fill="#1ea1f3"/>
      <path id="Path_3115" data-name="Path 3115" d="M76.127,173.259l-4.875,14.624L90.94,207.571c.378.015.758.024,1.14.024a28.862,28.862,0,0,0,28.862-28.862c0-.62-.022-1.235-.06-1.845l-7.973-7.973Z" transform="translate(-62.028 -149.979)" fill="#0170b5"/>
      <g id="Group_3745" data-name="Group 3745" transform="translate(9.224 14.731)">
        <path id="Path_3116" data-name="Path 3116" d="M90.913,177.6v-1.219H88.542a10.929,10.929,0,0,1,3.906-7.227l1.038-.86-.962-.947a10.916,10.916,0,0,0-7.705-3.153H74.907a3.66,3.66,0,0,0-3.656,3.656V183.7H93.119l-1.052-1.827A8.568,8.568,0,0,1,90.913,177.6Zm-9.75,1.219H76.126v-9.75h5.037Z" transform="translate(-71.251 -160.522)" fill="#ffdf40"/>
        <g id="Group_3741" data-name="Group 3741" transform="translate(17.224 10.986)">
          <path id="Path_3117" data-name="Path 3117" d="M235,246.116a11,11,0,0,1-10.968-10.968v-1.219h5a6.1,6.1,0,0,1,11.944,0h5v1.219A10.98,10.98,0,0,1,235,246.116Z" transform="translate(-224.028 -229.054)" fill="#f3f5f9"/>
        </g>
        <path id="Path_3118" data-name="Path 3118" d="M332.284,235.148v-1.219h-5a6.106,6.106,0,0,0-5.972-4.875v17.062a10.98,10.98,0,0,0,10.968-10.968Z" transform="translate(-293.123 -218.068)" fill="#d9e0eb"/>
        <g id="Group_3742" data-name="Group 3742" transform="translate(31.187)">
          <path id="Path_3119" data-name="Path 3119" d="M353.868,142.236l-1.028-1.1a10.8,10.8,0,0,0-3.594-2.52l-1.371-.6,4.511-6.414,5.96,4.206Z" transform="translate(-347.874 -131.61)" fill="#ffbe40"/>
        </g>
        <g id="Circular_Saw_2_" transform="translate(14.787 3.698)">
          <g id="Group_3743" data-name="Group 3743">
            <path id="Path_3120" data-name="Path 3120" d="M225.539,168.582a13.04,13.04,0,0,0-4.387-3.1A13.4,13.4,0,0,0,202.408,177.8v1.219h9.75V177.8a3.656,3.656,0,0,1,7.312,0v1.219h9.75V177.8a13.353,13.353,0,0,0-3.68-9.213Z" transform="translate(-202.408 -164.414)" fill="#596c76"/>
          </g>
          <g id="Group_3744" data-name="Group 3744" transform="translate(11.675 11.659)">
            <path id="Path_3121" data-name="Path 3121" d="M0,0H2.437V2.437H0Z" transform="translate(0 1.723) rotate(-45)" fill="#d9e0eb"/>
          </g>
        </g>
        <path id="Path_3122" data-name="Path 3122" d="M334.721,177.794v1.219h-9.75v-1.219a3.651,3.651,0,0,0-3.656-3.656v-9.725a13.559,13.559,0,0,1,5.338,1.072,13.039,13.039,0,0,1,4.387,3.1A13.354,13.354,0,0,1,334.721,177.794Z" transform="translate(-293.122 -160.715)" fill="#465a61"/>
        <path id="Path_3123" data-name="Path 3123" d="M323.038,269.541l-1.723-1.723v3.447Z" transform="translate(-293.122 -252.462)" fill="#b8c4d9"/>
      </g>
    </g>
  </g>
</svg>
